<svg width="200px" height="200px" viewBox="0 0 200 200" version="1.1" xmlns="http://www.w3.org/2000/svg"
	xmlns:xlink="http://www.w3.org/1999/xlink">
	<g id="Page-1" stroke="none" stroke-width="1" fill="none" fill-rule="evenodd">
		<g id="_bitcoin" fill-rule="nonzero">
			<circle id="Oval" fill="#F49B33" cx="100" cy="100" r="100"></circle>
			<path
				d="M136.83605,79.57814 C135.858102,67.0373921 125.100671,62.6462128 111.486098,61.2080537 L111.792905,43.8350911 L101.227229,43.662512 L100.920422,60.5752637 C98.1399808,60.5177373 95.3020134,60.5369128 92.464046,60.5369128 L92.7708533,43.5091083 L82.2051774,43.3173538 L81.8983701,60.6903164 C79.6164909,60.6903164 77.3537872,60.7094919 75.1677852,60.6519655 L75.1677852,60.5944391 L60.5752637,60.3451582 L60.3835091,71.6395014 C60.3835091,71.6395014 68.2070949,71.620326 68.0728667,71.7737296 C72.3489933,71.8504314 73.7104506,74.3624161 74.0747843,76.5100671 L73.7296261,96.2991371 C74.0172579,96.2991371 74.400767,96.3183126 74.8418025,96.3950144 L73.7296261,96.3758389 L73.2502397,124.103547 C73.0393097,125.445829 72.2147651,127.574305 69.2042186,127.535954 C69.3384468,127.651007 61.514861,127.401726 61.514861,127.401726 L59.1946309,139.980825 L72.9626079,140.230105 C75.5129434,140.287632 78.0441035,140.364334 80.5177373,140.42186 L80.21093,157.986577 L90.7766059,158.159156 L91.0834132,140.786194 C93.978907,140.882071 96.7976989,140.958773 99.5397891,141.016299 L99.2329818,158.31256 L109.798658,158.485139 L110.105465,140.958773 C127.900288,140.249281 140.42186,135.99233 142.262704,119.309684 C143.739214,105.886865 137.526366,99.7698945 127.478428,97.1812081 C133.652924,94.189837 137.583893,88.7631831 136.83605,79.57814 Z M121.380633,116.893576 C121.169703,130.028763 98.696069,128.130393 91.5244487,128.01534 L91.9463087,104.736337 C99.1179291,104.85139 121.629914,103.183126 121.380633,116.893576 Z M117.04698,83.9501438 C116.83605,95.8964525 98.1016299,94.1706616 92.1380633,94.0747843 L92.5023969,72.9626079 C98.4659636,73.0584851 117.25791,71.4860978 117.04698,83.9501438 Z"
				id="Shape" fill="#FFFFFF"></path>
		</g>
	</g>
</svg>