<svg width="126px" height="200px" viewBox="0 0 126 200" version="1.1" xmlns="http://www.w3.org/2000/svg"
	xmlns:xlink="http://www.w3.org/1999/xlink">
	<g id="Page-1" stroke="none" stroke-width="1" fill="none" fill-rule="evenodd">
		<g id="_ethereum" fill-rule="nonzero">
			<path
				d="M62.8571429,0 L62.8571429,73.6326531 C62.8571429,73.9591837 62.5306122,74.2857143 62.2040816,74.2857143 C59.9727891,75.2108844 58.0136054,76.1904762 55.7823129,77.1156463 C52.8979592,78.3673469 49.6870748,79.6190476 46.8027211,81.1972789 L36.244898,85.9319728 L27.5918367,89.7414966 L17.0340136,94.4761905 C14.1496599,95.7278912 11.2653061,96.9795918 8.05442177,98.5578231 C5.82312925,99.4829932 3.26530612,100.789116 0.979591837,101.714286 C0.653061224,101.714286 0.653061224,102.040816 0.326530612,101.714286 L0,101.714286 C0.979591837,100.136054 1.9047619,98.8843537 2.88435374,97.3061224 C8,88.7619048 13.4421769,80.2176871 18.6122449,71.7278912 C24.0544218,62.585034 29.8231293,53.3877551 35.2653061,44.244898 C40.3809524,35.7006803 45.5510204,27.1564626 50.6666667,18.9931973 C54.5306122,12.6802721 58.3401361,6.69387755 61.877551,0.326530612 C62.5306122,0.326530612 62.5306122,0 62.8571429,0 C62.5306122,0 62.8571429,0 62.8571429,0 L62.8571429,0 Z"
				id="Path" fill="#8A92B2"></path>
			<path
				d="M125.061224,101.768707 C120.272109,104.92517 115.102041,107.755102 110.312925,110.639456 C94.585034,119.782313 79.1836735,128.653061 63.5102041,137.795918 C63.1836735,137.795918 63.1836735,138.122449 62.8571429,138.122449 C62.5306122,138.122449 62.5306122,137.795918 62.5306122,137.795918 L62.5306122,136.816327 L62.5306122,75.2108844 L62.5306122,74.2857143 C62.5306122,73.9591837 62.8571429,73.9591837 63.1836735,73.9591837 C64.4897959,74.6122449 65.7414966,75.2108844 67.3741497,75.8639456 C71.2380952,77.7687075 75.3741497,79.3469388 79.2380952,81.2517007 C82.7755102,82.829932 85.9863946,84.4081633 89.5238095,85.6598639 C93.0612245,87.2380952 96.2721088,88.8163265 99.8095238,90.3945578 C102.693878,91.6462585 105.904762,92.8979592 108.789116,94.4761905 C111.673469,95.7278912 114.884354,96.9795918 117.768707,98.5578231 C120,99.4829932 122.285714,100.789116 124.843537,101.714286 C124.734694,101.442177 124.734694,101.768707 125.061224,101.768707 Z"
				id="Path" fill="#464A75"></path>
			<path
				d="M62.8571429,200 C62.8571429,200 62.5306122,200 62.8571429,200 C62.5306122,200 62.5306122,200 62.2040816,199.673469 C55.7823129,190.802721 49.6870748,182.312925 43.2653061,173.442177 L24.0544218,146.938776 C17.9591837,138.394558 11.537415,129.85034 5.44217687,121.034014 L0.653061224,114.394558 C0.653061224,114.068027 0.326530612,114.068027 0.326530612,113.741497 C0.653061224,113.741497 0.653061224,114.068027 0.979591837,114.068027 C9.63265306,119.129252 18.6122449,124.190476 27.2653061,129.251701 C37.2244898,135.238095 47.4557823,140.952381 57.414966,146.938776 C58.9931973,147.863946 60.952381,148.843537 62.5306122,149.768707 C62.8571429,149.768707 62.8571429,150.095238 62.8571429,150.421769 C62.8571429,150.421769 62.8571429,200 62.8571429,200 Z"
				id="Path" fill="#8A92B2"></path>
			<path
				d="M0.326530612,101.768707 C0.326530612,101.768707 0.653061224,101.768707 0.326530612,101.768707 C0.653061224,101.768707 0.653061224,101.768707 0.326530612,101.768707 C0.326530612,102.040816 0.326530612,102.040816 0.326530612,101.768707 Z"
				id="Path" fill="#808081"></path>
			<path
				d="M0.653061224,102.040816 C0.653061224,101.768707 0.653061224,101.768707 0.653061224,102.040816 C3.86394558,100.462585 7.07482993,99.2108844 10.2857143,97.6326531 L22.8027211,91.9183673 C26.0136054,90.3401361 29.2244898,89.0884354 32.4353741,87.5102041 C36.8979592,85.2789116 41.7414966,83.4285714 46.2040816,81.1972789 C49.414966,79.9455782 52.6258503,78.3673469 55.8367347,77.1156463 C58.0680272,76.1904762 60.2993197,75.2108844 62.585034,73.9591837 C62.9115646,73.9591837 62.9115646,73.6326531 63.2380952,73.6326531 L63.2380952,138.068027 C62.9115646,138.394558 62.9115646,138.068027 62.585034,138.068027 C61.6054422,137.414966 60.6802721,137.142857 60.0272109,136.489796 L1.36054422,102.367347 C0.979591837,102.040816 0.653061224,102.040816 0.653061224,102.040816 L0.653061224,102.040816 Z M124.734694,113.741497 C124.734694,114.068027 124.734694,114.068027 124.408163,114.394558 C105.795918,140.29932 87.1836735,165.877551 68.6258503,191.782313 C66.7210884,194.612245 64.7619048,197.170068 62.8571429,200 L62.8571429,199.673469 L62.8571429,199.020408 L62.8571429,150.693878 L62.8571429,149.768707 C67.047619,147.265306 71.1836735,144.707483 75.3741497,142.47619 C91.755102,133.006803 108.081633,123.537415 124.462585,114.013605 C124.408163,113.741497 124.734694,113.741497 124.734694,113.741497 L124.734694,113.741497 Z"
				id="Shape" fill="#636890"></path>
			<path
				d="M62.8571429,73.9591837 L62.8571429,73.3061224 L62.8571429,0.925170068 L62.8571429,0.272108844 L124.408163,100.734694 C124.734694,101.061224 125.061224,101.387755 125.061224,101.659864 C123.755102,101.006803 122.503401,100.408163 120.870748,99.755102 C119.292517,99.1020408 117.659864,98.1768707 116.081633,97.5238095 C115.102041,97.1972789 114.176871,96.5986395 112.870748,96.2721088 C111.292517,95.6190476 109.333333,94.6938776 107.755102,94.0408163 C106.77551,93.7142857 105.85034,93.1156463 104.870748,92.7891156 L98.122449,89.9591837 C96.8163265,89.3061224 95.8911565,89.0340136 94.585034,88.3809524 C93.0068027,87.7278912 91.3741497,86.8027211 89.7959184,86.1496599 C88.8163265,85.8231293 87.8911565,85.2244898 86.9115646,84.8979592 L80.1632653,82.0680272 C78.8571429,81.414966 77.9319728,81.1428571 76.6258503,80.4897959 C75.047619,79.8367347 73.414966,78.9115646 71.8367347,78.2585034 C70.8571429,77.6054422 69.6054422,77.3333333 68.6258503,76.6802721 L62.8571429,73.9591837 L62.8571429,73.9591837 Z"
				id="Path" fill="#636890"></path>
		</g>
	</g>
</svg>