<svg width="200px" height="53px" viewBox="0 0 200 53" version="1.1" xmlns="http://www.w3.org/2000/svg"
	xmlns:xlink="http://www.w3.org/1999/xlink">
	<g id="Page-1" stroke="none" stroke-width="1" fill="none" fill-rule="evenodd">
		<g id="_mercadopago" fill-rule="nonzero">
			<g id="AI6pNP.tif" transform="translate(-0.000000, 0.000000)">
				<g id="Group" transform="translate(0.000000, -0.000000)">
					<path
						d="M38.2414205,0.00202228559 C38.4982507,0.034378855 38.7530587,0.0889805658 39.009889,0.0970697082 C43.4831847,0.24267427 47.8594107,0.972719367 52.1365447,2.27709357 C56.2336953,3.52686606 60.0901939,5.28827681 63.5907703,7.77973265 C66.3309673,9.72921596 68.7111974,12.0346215 70.5110316,14.8981779 C71.9144978,17.1287589 72.8346377,19.5413456 73.1177577,22.1682946 C73.3058302,23.9155494 73.2916743,25.6729155 73.0995571,27.4201703 C72.4382697,33.3960242 69.4837105,38.0978382 64.9598576,41.9037797 C61.7626241,44.5934195 58.1063318,46.4680782 54.1770309,47.8351433 C51.1779814,48.8786426 48.0960181,49.5763312 44.951364,50.0091003 C41.6752614,50.46007 38.3850027,50.6400534 35.0805881,50.5510728 C30.2048575,50.4196243 25.4039515,49.7724929 20.7284273,48.3366701 C16.7404801,47.111165 12.9972295,45.3800886 9.63821311,42.8805436 C6.51580416,40.5569375 3.95559061,37.7459605 2.20833586,34.2433618 C1.08798965,31.9966026 0.400412546,29.6264839 0.184027988,27.120872 C0.157738276,26.8175292 0.0626908532,26.5222755 0,26.2209549 C0,25.1815001 0,24.1420453 0,23.1025905 C0.0424679973,22.9832757 0.103136565,22.8639608 0.121337135,22.7406014 C0.20627313,22.1966066 0.258852555,21.6465449 0.355922263,21.1025501 C0.827114805,18.467512 1.91308217,16.0933487 3.45608607,13.9193917 C5.33074481,11.2762644 7.68670752,9.12657485 10.3702805,7.33280754 C16.1580618,3.46215293 22.6071306,1.41964448 29.4545896,0.49950454 C31.1452203,0.270986269 32.8439402,0.117292564 34.5507493,0.0849359947 C34.7084875,0.0808914235 34.8682481,0.0303342838 35.0259864,6.78873012e-16 C36.0937532,0.00202228559 37.1675868,0.00202228559 38.2414205,0.00202228559 Z M71.7850715,22.7830694 C66.7698032,23.9438614 61.9466521,25.3877733 57.2448381,27.3251229 C57.8980364,28.7063439 57.9324152,30.0107181 56.9354284,31.1634209 C55.9748428,32.275678 54.694736,32.6558677 53.2285789,32.4819511 C53.2063338,32.6376671 53.1881332,32.7630488 53.1719549,32.8884305 C53.0870189,33.6043196 52.8160327,34.2413396 52.3165281,34.761067 C51.3822322,35.7358086 50.2517746,36.2595806 48.8766204,36.1928452 C48.7209044,36.184756 48.5631661,36.1908229 48.399361,36.1908229 C48.1000627,37.2343222 47.4165302,37.919877 46.5307691,38.4396044 C45.6086068,38.9795547 44.6277983,39.0321341 43.6166555,38.7935044 C42.791563,39.9462072 41.6125705,40.2151712 40.3304415,40.1989929 C39.3031204,40.1868592 38.3546684,39.8410484 37.4365508,39.4082792 C37.2767902,39.3334547 37.1170297,39.2606524 36.9572691,39.1878501 C35.8632126,40.1807923 34.6174847,40.6297397 33.1695282,40.348642 C31.7114603,40.0655221 30.7084066,39.1777387 30.0794758,37.8956096 C27.9479868,38.2919776 26.4191389,37.5133976 25.371595,35.7519869 C22.8983397,35.9259035 21.3553358,34.7732007 20.5949564,32.4677951 C19.2359805,32.6154219 18.0913669,32.23321 17.2318955,31.1735323 C16.3582681,30.0956541 16.2773767,28.8721713 16.689923,27.5637526 C16.3805133,27.3675909 16.0994156,27.1734514 15.8061841,27.0056017 C14.3905842,26.1946652 12.8819592,25.5960687 11.3490667,25.0520739 C8.5724686,24.0672208 5.71700135,23.3735768 2.84940039,22.7203786 C2.44292099,22.6273534 2.03644159,22.5343283 1.61176161,22.4372586 C1.5854719,22.5626403 1.56120447,22.6394871 1.55311533,22.7183563 C1.43380048,23.6930979 1.48233534,24.6658173 1.5996279,25.6344921 C1.88881474,28.0288782 2.73413011,30.2271027 4.01625918,32.261522 C5.51679508,34.6417521 7.45818925,36.609436 9.68674796,38.3101782 C12.4876135,40.4457117 15.5796882,42.0473619 18.8699468,43.2809561 C24.408987,45.3558211 30.158345,46.2880948 36.0533074,46.3669639 C39.8349815,46.4175211 43.584299,46.0777771 47.2931707,45.3234646 C51.5379482,44.4599486 55.6067868,43.0969281 59.4208174,41.02813 C62.4744686,39.3718781 65.2369108,37.3394811 67.5099598,34.690287 C69.8295213,31.9885134 71.3785921,28.9328399 71.7547372,25.3473275 C71.8416955,24.5181905 71.8295618,23.6930979 71.7850715,22.7830694 Z M1.79376732,20.9164998 C2.48538899,21.1065947 3.13454266,21.3047787 3.79583005,21.4604947 C6.48546988,22.0874032 9.15286457,22.7850917 11.7575684,23.7112985 C13.411798,24.2997836 15.0377156,24.9550041 16.5584744,25.8448098 C16.8779955,26.0328824 17.1894275,26.2351109 17.5170378,26.4393618 C18.2875286,25.7517847 19.1611559,25.3897955 20.1945439,25.4403527 C21.2481547,25.4909098 22.0712249,25.9944589 22.7790249,26.7427046 C23.7881454,26.0571498 24.8640013,25.8791887 26.0167041,26.1137738 C27.1754737,26.3483589 28.0753908,26.9550446 28.6456753,27.9944994 C30.0289187,27.5779086 31.2766689,27.7841817 32.403082,28.5789399 C33.6022973,29.4242553 33.8166596,30.7164958 33.8186819,32.0592934 C36.765152,32.0754717 39.0139335,34.8763372 37.7783171,38.0027908 C38.2495096,38.3627576 39.2707638,38.7308136 39.9846306,38.8197941 C40.5933386,38.896641 41.183846,38.8460838 41.7561528,38.6216101 C42.0453396,38.5083622 42.3143036,38.3607353 42.437663,38.018969 C42.3466602,37.9077433 42.2597019,37.7924731 42.1626322,37.6852919 C41.3213614,36.7590851 40.4780683,35.8349006 39.6388198,34.9066715 C39.5195049,34.775223 39.4143461,34.6296184 39.321321,34.4799693 C39.2262735,34.3282978 39.208073,34.1422476 39.3678335,34.0451779 C39.4891707,33.9723756 39.6853324,33.9319299 39.8107141,33.9784424 C40.0008089,34.0492224 40.1747255,34.1907824 40.3284192,34.3343647 C41.3274283,35.2625938 42.3183482,36.2029566 43.3173573,37.1311857 C43.4690287,37.2727457 43.6328338,37.4385731 43.8209064,37.4992416 C44.6237538,37.7580942 45.4104229,37.6751805 46.1040668,37.1938765 C46.9635382,36.59528 47.2567696,35.7762543 46.3912314,34.8581367 C46.3022508,34.7630892 46.2193371,34.6639972 46.1323788,34.5669275 C45.1677486,33.4890493 44.2031184,32.4111711 43.2425327,31.3312706 C43.145463,31.2220672 43.0261482,31.1128638 42.9857024,30.9814152 C42.9412122,30.8418775 42.9250339,30.6457158 42.989747,30.5284232 C43.0908613,30.3484398 43.3052236,30.3828187 43.4750956,30.4515764 C43.6085664,30.5061781 43.7319258,30.5951586 43.8411292,30.6881838 C44.1404275,30.9389472 44.4397258,31.1897106 44.7208235,31.4586746 C45.6834314,32.3788145 46.6460394,33.302999 47.5944913,34.237295 C47.8715444,34.5082813 48.1829764,34.6963538 48.5510324,34.7914012 C49.6167769,35.0664321 51.0364214,34.463791 51.5824385,33.4971385 C51.9100487,32.9167425 51.940383,32.3161237 51.5945722,31.73775 C51.4469453,31.4910312 51.2528059,31.2625129 51.0485551,31.058262 C49.6187992,29.6143501 48.1809541,28.1805497 46.7491759,26.7406823 C46.6136828,26.6031669 46.4822342,26.4555401 46.3790977,26.2917349 C46.2800057,26.1339966 46.2557382,25.9499687 46.4074097,25.7982972 C46.5570588,25.6486481 46.7390645,25.6587595 46.9008473,25.7578515 C47.0929645,25.8751441 47.281037,26.0106372 47.4488867,26.1602864 C49.0889603,27.6183543 50.7249894,29.0784445 52.3549516,30.5466238 C52.6279601,30.7913204 52.9211915,30.9854598 53.2730692,31.0744403 C54.2538777,31.3231815 55.10526,31.0602843 55.8332828,30.3828187 C56.1972942,30.045097 56.3550325,29.6082833 56.3453768,29.110801 C56.330765,28.4151348 56.0152885,27.8751845 55.4955611,27.4282594 C52.9474812,25.230035 50.4155797,23.0156323 47.8594107,20.8295415 C45.9321725,19.1834011 43.9867338,17.5574835 42.0210722,15.9558333 C41.4204534,15.4684625 40.7470323,15.0579385 40.0655221,14.6838156 C39.2909867,14.2571134 38.4315153,14.1034197 37.5639548,14.3380048 C36.9896257,14.4937208 36.425408,14.7202168 35.8935469,14.9912031 C34.8621812,15.5169973 33.954175,16.236931 33.0401019,16.9406864 C32.332302,17.4846812 31.6224797,18.0306983 30.8803009,18.5281805 C28.9874416,19.7981759 26.9914457,19.7011062 24.9711824,18.8861251 C24.635483,18.750632 24.3220288,18.5079577 24.0611539,18.2511274 C23.4827802,17.6848875 23.4504237,16.9629315 23.9236385,16.3117555 C24.0004853,16.2065967 24.0854213,16.109527 24.1744019,16.0144796 C25.2927258,14.8132419 26.4130721,13.6140266 27.531396,12.4127889 C27.602176,12.3359421 27.6567777,12.2469615 27.7963154,12.0629335 C27.1168274,12.2348278 26.5586766,12.3844769 25.9944589,12.5199701 C25.0965641,12.7363546 24.2027139,12.9931849 23.2926854,13.1408117 C21.9599992,13.3571963 20.6333798,13.1691237 19.3249611,12.8981375 C16.0266133,12.2125827 12.8253352,11.1994176 9.6948371,9.9617788 C9.36520455,9.83033024 9.14073085,9.85459767 8.8677223,10.0871605 C7.71097494,11.0639244 6.61489616,12.1033792 5.64217679,13.2661935 C3.88885518,15.3612813 2.5683027,17.6869097 1.90903759,20.358349 C1.86252503,20.5221541 1.83623531,20.6960707 1.79376732,20.9164998 Z M71.6859795,21.2339987 C71.4028595,20.3077919 71.1905195,19.4402313 70.8770653,18.609072 C69.6515602,15.3491476 67.5281603,12.7383769 64.9275011,10.4794839 C64.7333616,10.3116342 64.5776457,10.3278125 64.3592388,10.4147708 C63.2874275,10.8374285 62.2237052,11.2863759 61.1296487,11.6422981 C58.4298975,12.5219924 55.6553216,12.8900483 52.818055,12.6514186 C50.2841311,12.4390786 47.8695221,11.7595907 45.5722057,10.6776679 C44.1707618,10.0184028 42.7126939,9.5269874 41.2020466,9.19735485 C38.7510364,8.66144917 36.326316,8.77065259 33.9420413,9.5552994 C32.2089425,10.1276062 30.7427855,11.1448159 29.464701,12.4188558 C28.0956137,13.7838986 26.781128,15.2015208 25.4504641,16.6029647 C24.7952436,17.2925641 24.8538899,17.5129932 25.7598738,17.8770046 C25.8043641,17.8952052 25.8488544,17.9174503 25.8953669,17.9316063 C26.7143926,18.2086594 27.5556634,18.2106817 28.4009788,18.1055229 C29.2361827,18.0023863 29.9379158,17.5918623 30.5931364,17.1065138 C31.5193432,16.420959 32.4111711,15.6868693 33.3434448,15.0073813 C34.0633784,14.4836094 34.8055572,13.9820825 35.5720035,13.5270683 C36.3505834,13.0639649 37.2221885,12.845558 38.1261502,12.7990455 C39.2545855,12.7403992 40.2819066,13.0963215 41.198002,13.7272746 C42.0938745,14.3440717 42.9877247,14.9730025 43.8148395,15.6747356 C47.6693159,18.9407268 51.4995248,22.2370523 55.3398451,25.5192218 C55.6229651,25.7618961 55.8899068,26.1360189 56.2074056,26.1906206 C56.5228822,26.2452224 56.8990273,25.9843475 57.2387713,25.8407652 C61.754535,23.9438614 66.4098364,22.4837712 71.1783858,21.3775809 C71.3159012,21.3432021 71.4513944,21.2987118 71.6859795,21.2339987 Z M10.5138628,8.82120973 C10.7464256,8.9243463 10.8455176,8.97490344 10.9506765,9.01130458 C13.8405226,10.0588485 16.7849704,10.9223645 19.7880645,11.5816296 C21.1349067,11.8768833 22.4938826,11.959797 23.8488139,11.648365 C24.593015,11.478493 25.3271047,11.2681753 26.0652389,11.0699913 C27.0561589,10.8030496 28.055168,10.5826205 29.082489,10.5300411 C29.3898764,10.5138628 29.6386176,10.4329713 29.8812918,10.2388319 C32.1401848,8.44102004 34.7529778,7.63412809 37.6044005,7.50470181 C40.0008089,7.39752068 42.2900362,7.8990475 44.5145503,8.73829602 C45.3942446,9.06995086 46.2456268,9.48249712 47.1152096,9.84448624 C49.9100083,11.0032559 52.818055,11.5047827 55.8373273,11.2924427 C58.391474,11.1124593 60.8222613,10.4147708 63.1721572,9.42385084 C63.2287812,9.39958341 63.277316,9.35509313 63.3298954,9.31869199 C63.3096726,9.27824627 63.3036057,9.23982285 63.2813606,9.22162228 C63.1681126,9.13061943 63.0528423,9.04163886 62.9335275,8.95670287 C61.1984064,7.71299723 59.3561043,6.6512973 57.4187547,5.7534025 C51.600639,3.05365124 45.4508686,1.75736618 39.0725798,1.47829076 C34.5568161,1.28010678 30.073409,1.60569476 25.6446035,2.54807984 C21.2643329,3.4803535 17.0741572,4.93639912 13.1772129,7.17506926 C12.3076301,7.6745738 11.4683816,8.22868005 10.5138628,8.82120973 Z M21.7031689,30.5041558 C21.9478655,30.6416712 21.9134866,30.8317661 21.8831523,31.02995 C21.7921495,31.638658 21.8791078,32.2291654 22.1197598,32.7913608 C22.7648689,34.293919 24.4838116,34.8621812 25.8872778,34.0431556 C25.9580578,34.0027099 26.0247932,33.954175 26.0996178,33.925863 C26.3342029,33.8348602 26.4737406,33.9218184 26.4959858,34.1786487 C26.5040749,34.2575178 26.4878966,34.3404316 26.483852,34.421323 C26.4434063,35.0502538 26.6860806,35.5639143 27.1552509,35.9703937 C27.5677971,36.3283383 28.0491011,36.5507897 28.5789399,36.6781937 C29.1593359,36.8177314 29.6709741,36.6842606 30.144189,36.3445166 C30.2493478,36.269692 30.3443952,36.1786892 30.4475318,36.09982 C30.8135655,35.8227669 31.0016381,35.8915246 31.0764626,36.3323829 C31.086574,36.397096 31.086574,36.4618091 31.0926409,36.5265223 C31.2726243,38.3526462 33.0542579,39.5356832 34.8096018,38.995733 C36.3141823,38.5326296 37.1675868,36.9370462 36.7327954,35.4405549 C36.2959817,33.9420413 34.5952395,32.9834779 33.1573945,33.4971385 C32.9733665,33.5618516 32.7893385,33.6265647 32.601266,33.6730773 C32.3019677,33.7479019 32.1684968,33.6225202 32.2129871,33.3151328 C32.2291654,33.2039071 32.2857894,33.0987482 32.3060123,32.9895448 C32.388926,32.5608202 32.5102631,32.134118 32.5365528,31.7013489 C32.5810431,30.9652369 32.4111711,30.2776598 31.8388643,29.7518656 C30.8600781,28.8499262 29.3898764,28.8115028 28.3645776,29.6588404 C27.9884325,29.9682501 27.87114,29.9257821 27.772048,29.450545 C27.7659811,29.4181884 27.7558697,29.3878542 27.7518251,29.3554976 C27.51724,27.7396914 26.1562418,27.2361423 24.9509596,27.3352343 C23.9499282,27.4161257 23.1875265,27.9398977 22.6010637,28.7387005 C22.5201723,28.8479039 22.4352363,28.955085 22.3300775,29.0905782 C21.9539323,27.4949948 21.3047787,26.7892172 20.1763433,26.7042812 C19.1935125,26.6294566 18.269328,27.2118749 17.9032943,28.1340371 C17.5372606,29.054177 17.8244252,30.1037433 18.6070497,30.7164958 C19.5069668,31.4222735 20.443285,31.3616049 21.7031689,30.5041558 Z"
						id="Shape" fill="#9ca4d5"></path>
					<path
						d="M71.7850715,22.7830694 C71.8295618,23.6930979 71.8416955,24.5181905 71.7567595,25.3412607 C71.3806144,28.926773 69.8315436,31.9824466 67.511982,34.6842201 C65.238933,37.3334142 62.4744686,39.3658112 59.4228397,41.0220631 C55.6088091,43.0928836 51.5379482,44.4538818 47.295193,45.3173977 C43.5863213,46.0717102 39.8349815,46.4114542 36.0553297,46.3608971 C30.1603672,46.2820279 24.4110093,45.3497543 18.8719691,43.2748893 C15.5817104,42.0412951 12.4896358,40.4396449 9.68877025,38.3041113 C7.46021153,36.6053914 5.51881737,34.6377075 4.01828146,32.2554551 C2.7361524,30.2210358 1.89285931,28.0228114 1.60165019,25.6284252 C1.48435762,24.6597504 1.43582277,23.6870311 1.55513762,22.7122894 C1.56524904,22.6334203 1.58749419,22.5565734 1.6137839,22.4311917 C2.03846387,22.5282614 2.44494327,22.6212866 2.85142268,22.7143117 C5.71902364,23.36751 8.57449089,24.0611539 11.351089,25.046007 C12.8839815,25.5900018 14.3946288,26.1865761 15.8082064,26.9995349 C16.1014378,27.1673846 16.3825355,27.361524 16.6919452,27.5576857 C16.2773767,28.8661045 16.3582681,30.0895873 17.2339178,31.1674655 C18.0933891,32.2271431 19.2380028,32.6113774 20.5969787,32.4617282 C21.3573581,34.7671338 22.900362,35.9218589 25.3736173,35.74592 C26.4211612,37.5073308 27.9500091,38.2859107 30.0814981,37.8895428 C30.7104289,39.1716718 31.7134826,40.0594552 33.1715505,40.3425752 C34.619507,40.6236729 35.8652349,40.1747255 36.9592914,39.1817833 C37.1210742,39.2566078 37.2808348,39.3273878 37.4385731,39.4022124 C38.3566907,39.8349815 39.3051427,40.1807923 40.3324638,40.192926 C41.6145928,40.2091043 42.7935853,39.9401403 43.6186778,38.7874376 C44.6298206,39.0260673 45.6106291,38.9734878 46.5327914,38.4335376 C47.4185524,37.9138102 48.102085,37.2302777 48.4013832,36.184756 C48.5651884,36.184756 48.7209044,36.1786892 48.8786426,36.1867783 C50.2537968,36.255536 51.3842545,35.7297418 52.3185504,34.7550001 C52.818055,34.2352727 53.0890412,33.5982527 53.1739772,32.8823636 C53.1881332,32.7569819 53.2083561,32.6316002 53.2306012,32.4758842 C54.6987806,32.6498008 55.9768651,32.2696111 56.9374507,31.157354 C57.9344375,30.0046513 57.9000586,28.7022993 57.2468604,27.319056 C61.9466521,25.3877733 66.7698032,23.9438614 71.7850715,22.7830694 Z"
						id="Path" fill="#50B4E9"></path>
					<path
						d="M1.79376732,20.9164998 C1.83623531,20.6960707 1.86252503,20.5221541 1.90297074,20.3543044 C2.56223584,17.6828652 3.88278833,15.3572367 5.63610993,13.2621489 C6.6088293,12.0993347 7.70490809,11.0619022 8.86165544,10.0831159 C9.134664,9.85257538 9.3591377,9.82830795 9.68877025,9.95773423 C12.8192683,11.195373 16.0205464,12.2085381 19.3188942,12.8940929 C20.627313,13.1671015 21.9539323,13.3531517 23.2866185,13.1367672 C24.1966471,12.9891403 25.0904973,12.7323101 25.9883921,12.5159255 C26.5526098,12.3804324 27.1127829,12.2307832 27.7902485,12.058889 C27.6507108,12.2429169 27.5961091,12.3339198 27.5253291,12.4087444 C26.4070052,13.609982 25.286659,14.8091974 24.1683351,16.010435 C24.0793545,16.1054824 23.9944185,16.2025521 23.9175716,16.307711 C23.4443568,16.9609092 23.4767134,17.6808429 24.0550871,18.2470829 C24.3159619,18.5039131 24.6294162,18.7465874 24.9651156,18.8820805 C26.9853789,19.6970616 28.9813747,19.7941313 30.8742341,18.524136 C31.6143906,18.0266537 32.3262351,17.4826589 33.0340351,16.9366418 C33.9481082,16.2328864 34.8561144,15.5129527 35.88748,14.9871585 C36.4173189,14.7161722 36.9835588,14.4896762 37.5578879,14.3339602 C38.4254484,14.0993751 39.2849198,14.2530688 40.0594552,14.6797711 C40.7389432,15.0538939 41.4143865,15.4623956 42.0150054,15.9517887 C43.9806669,17.5514166 45.9261057,19.1773342 47.8533438,20.825497 C50.4115351,23.0095654 52.9434367,25.2259904 55.4894942,27.4242148 C56.0092216,27.8731622 56.3226759,28.4110902 56.33931,29.1067565 C56.3489656,29.6042387 56.1912273,30.0410524 55.8272159,30.3787741 C55.0991931,31.0562398 54.2478109,31.3211592 53.2670024,31.0703958 C52.9151247,30.9814152 52.6218933,30.7872758 52.3488847,30.5425792 C50.7189225,29.0743999 49.0808712,27.6143097 47.4428199,26.1562418 C47.2749702,26.0065927 47.0868976,25.8731218 46.8947805,25.753807 C46.7329976,25.654715 46.5509919,25.6446035 46.4013428,25.7942527 C46.2496714,25.9459241 46.2739388,26.1299521 46.3730308,26.2876903 C46.4761674,26.4494732 46.6076159,26.5991223 46.7431091,26.7366377 C48.1748873,28.1765051 49.6147546,29.6123279 51.0424882,31.0542175 C51.2467391,31.2604906 51.4408785,31.4869866 51.5885053,31.7337054 C51.9363384,32.3141014 51.9060042,32.9147202 51.5763716,33.4930939 C51.0303545,34.4597464 49.61071,35.0623875 48.5449655,34.7873567 C48.1769095,34.6923092 47.8654776,34.506259 47.5884244,34.2332504 C46.6379502,33.2989545 45.6773646,32.37477 44.7147566,31.45463 C44.4336589,31.185666 44.1343607,30.9349026 43.8350624,30.6841392 C43.7238367,30.5911141 43.6004773,30.5021335 43.4690287,30.4475318 C43.2991567,30.3787741 43.0847944,30.3443952 42.9836802,30.5243787 C42.9169447,30.6416712 42.9351453,30.8378329 42.9796356,30.9773706 C43.0200813,31.1088192 43.1393961,31.2180226 43.2364659,31.327226 C44.1990738,32.4071265 45.163704,33.4850048 46.126312,34.562883 C46.2132702,34.6599527 46.2961839,34.7590447 46.3851645,34.8540921 C47.2507027,35.7722098 46.9574713,36.5912354 46.098,37.1898319 C45.4063783,37.6731582 44.6176869,37.7560719 43.8148395,37.4951971 C43.626767,37.4345285 43.4649841,37.2687011 43.3112904,37.1271411 C42.3122813,36.1968897 41.3213614,35.2585492 40.3223523,34.3303201 C40.1686586,34.1887601 39.9947421,34.0472001 39.8046472,33.9743979 C39.6792655,33.9278853 39.4831038,33.968331 39.3617667,34.0411333 C39.2020061,34.138203 39.2202067,34.3242533 39.3152541,34.4759247 C39.4103015,34.6255738 39.5154604,34.7711784 39.6327529,34.9026269 C40.4720015,35.830856 41.3152945,36.7550405 42.1565654,37.6812473 C42.2536351,37.7884285 42.3405933,37.9036988 42.4315962,38.0149245 C42.3082368,38.3566907 42.0392728,38.5043176 41.7500859,38.6175656 C41.1777791,38.8420393 40.5872717,38.8925964 39.9785638,38.8157496 C39.264697,38.7247467 38.2414205,38.3566907 37.7722502,37.9987462 C39.0058444,34.8722927 36.7570628,32.0734494 33.812615,32.0552488 C33.8105927,30.7124512 33.5962305,29.4202107 32.3970151,28.5748953 C31.270602,27.7801371 30.0228518,27.5718417 28.6396085,27.9904548 C28.0693239,26.951 27.1694069,26.3443143 26.0106372,26.1097292 C24.8579344,25.8751441 23.7820785,26.0531052 22.772958,26.73866 C22.065158,25.9904144 21.2420878,25.4868653 20.188477,25.4363081 C19.1550891,25.385751 18.2814617,25.7497624 17.5109709,26.4353172 C17.1833606,26.2310664 16.8739509,26.0268155 16.5524075,25.8407652 C15.0316488,24.9509596 13.4057312,24.295739 11.7515015,23.7072539 C9.14882,22.7810471 6.47940302,22.0833586 3.78976319,21.4564501 C3.13454266,21.3047787 2.48741127,21.1045724 1.79376732,20.9164998 Z"
						id="Path" fill="#FFFFFF"></path>
					<path
						d="M71.6859795,21.2339987 C71.4513944,21.2987118 71.3159012,21.3432021 71.1783858,21.3755587 C66.4098364,22.4817489 61.754535,23.9398168 57.2387713,25.8387429 C56.8990273,25.9823252 56.5208599,26.2432001 56.2074056,26.1885984 C55.8878845,26.1339966 55.6229651,25.7598738 55.3398451,25.5171995 C51.4995248,22.2330077 47.6693159,18.9387045 43.8148395,15.6727133 C42.9877247,14.9709802 42.0918522,14.3420494 41.198002,13.7252523 C40.2819066,13.0942992 39.2566078,12.7403992 38.1261502,12.7970232 C37.2242108,12.8435358 36.3505834,13.0619426 35.5720035,13.525046 C34.8055572,13.9800603 34.0633784,14.4815871 33.3434448,15.0053591 C32.4111711,15.6828247 31.5193432,16.4169144 30.5931364,17.1044915 C29.9379158,17.58984 29.2341604,18.000364 28.4009788,18.1035006 C27.5556634,18.2066371 26.7143926,18.2046149 25.8953669,17.929584 C25.8488544,17.9134057 25.8063864,17.8931829 25.7598738,17.8749823 C24.8538899,17.5109709 24.7952436,17.2905418 25.4504641,16.6009424 C26.781128,15.1994985 28.0976359,13.7818763 29.464701,12.4168335 C30.7427855,11.1427936 32.2089425,10.1255839 33.9420413,9.55327711 C36.326316,8.76660802 38.7490141,8.6574046 41.2020466,9.19533256 C42.7147162,9.5269874 44.1707618,10.0163805 45.5722057,10.6756456 C47.8695221,11.7575684 50.2841311,12.4370564 52.818055,12.6493963 C55.6553216,12.888026 58.4298975,12.5199701 61.1296487,11.6402758 C62.2237052,11.2843536 63.2874275,10.8354062 64.3592388,10.4127485 C64.5796679,10.3257902 64.7333616,10.3096119 64.9275011,10.4774616 C67.5281603,12.7383769 69.6515602,15.3491476 70.8770653,18.6070497 C71.1884972,19.4402313 71.4028595,20.3077919 71.6859795,21.2339987 Z"
						id="Path" fill="#FFFFFF"></path>
					<path
						d="M10.5138628,8.82120973 C11.4663593,8.22868005 12.3056078,7.6745738 13.1772129,7.17506926 C17.0721349,4.93639912 21.2623107,3.4803535 25.6466258,2.54807984 C30.0754313,1.60569476 34.5568161,1.28010678 39.0746021,1.47829076 C45.4528909,1.75736618 51.6046836,3.05365124 57.420777,5.7534025 C59.3561043,6.6512973 61.2004287,7.71299723 62.9355498,8.95670287 C63.0548646,9.04163886 63.1701349,9.13061943 63.2833829,9.22162228 C63.305628,9.23982285 63.3116949,9.27824627 63.3319177,9.31869199 C63.2793383,9.35307084 63.2308035,9.39958341 63.1741795,9.42385084 C60.8222613,10.4147708 58.3934963,11.1124593 55.8393496,11.2924427 C52.8200773,11.5047827 49.9120306,11.0032559 47.1172319,9.84448624 C46.2476491,9.4845194 45.3982891,9.06995086 44.5165726,8.73829602 C42.2920585,7.8990475 40.0028312,7.39752068 37.6064228,7.50470181 C34.7550001,7.63412809 32.1401848,8.44102004 29.8833141,10.2388319 C29.6406399,10.4329713 29.3918987,10.5138628 29.0845113,10.5300411 C28.0571902,10.5826205 27.0581812,10.8030496 26.0672612,11.0699913 C25.329127,11.2681753 24.5950373,11.478493 23.8508362,11.648365 C22.4938826,11.959797 21.136929,11.8768833 19.7900868,11.5816296 C16.7849704,10.9223645 13.8405226,10.0588485 10.9506765,9.01130458 C10.8475399,8.97490344 10.7484479,8.9243463 10.5138628,8.82120973 Z"
						id="Path" fill="#50B4E9"></path>
					<path
						d="M21.7031689,30.5041558 C20.443285,31.3616049 19.5069668,31.4222735 18.6070497,30.7185181 C17.8244252,30.1057655 17.5372606,29.0561993 17.9032943,28.1360594 C18.269328,27.2118749 19.1935125,26.6314789 20.1763433,26.7063035 C21.3047787,26.7912395 21.9539323,27.4970171 22.3300775,29.0926005 C22.4352363,28.955085 22.5201723,28.8499262 22.6010637,28.7407228 C23.1875265,27.94192 23.9499282,27.418148 24.9509596,27.3372566 C26.1562418,27.2381646 27.51724,27.7417137 27.7518251,29.3575199 C27.7558697,29.3898764 27.7659811,29.4202107 27.772048,29.4525673 C27.8691177,29.9298267 27.9884325,29.9722947 28.3645776,29.6608627 C29.3898764,28.813525 30.8621003,28.8519485 31.8388643,29.7538878 C32.4091488,30.2817044 32.5810431,30.9672592 32.5365528,31.7033712 C32.5102631,32.1361403 32.388926,32.5628425 32.3060123,32.9915671 C32.2837671,33.1027928 32.2291654,33.2059293 32.2129871,33.317155 C32.1684968,33.6265647 32.3019677,33.7499242 32.601266,33.6750996 C32.7893385,33.628587 32.9753888,33.5638739 33.1573945,33.4991608 C34.5932173,32.9855002 36.2959817,33.9420413 36.7327954,35.4425772 C37.1675868,36.9390685 36.3141823,38.5346519 34.8096018,38.9977553 C33.0542579,39.5377055 31.2726243,38.3546684 31.0926409,36.5285446 C31.086574,36.4638314 31.086574,36.3991183 31.0764626,36.3344051 C31.0016381,35.8935469 30.8135655,35.8227669 30.4475318,36.1018423 C30.3443952,36.1807114 30.2493478,36.2717143 30.144189,36.3465389 C29.6709741,36.6842606 29.1593359,36.8197537 28.5789399,36.680216 C28.0470788,36.5507897 27.5657748,36.3283383 27.1552509,35.972416 C26.6860806,35.5659366 26.4454286,35.0542984 26.483852,34.4233453 C26.4899189,34.3424538 26.5040749,34.2595401 26.4959858,34.180671 C26.4717183,33.925863 26.3342029,33.8368824 26.0996178,33.9278853 C26.0247932,33.9561973 25.9580578,34.0047321 25.8872778,34.0451779 C24.4838116,34.8642035 22.7668911,34.2959413 22.1197598,32.7933831 C21.8770855,32.2291654 21.7901272,31.6406803 21.8831523,31.0319723 C21.9134866,30.8317661 21.9458432,30.6416712 21.7031689,30.5041558 Z"
						id="Path" fill="#FFFFFF"></path>
				</g>
			</g>
			<g id="Group" transform="translate(84.679897, 1.366801)">
				<path
					d="M38.6350339,50.6848081 C38.1456408,50.5857161 37.6562477,50.4886464 37.1668546,50.3875321 C34.5136159,49.8435373 32.913988,48.1690848 32.0909178,45.6634729 C32.0808063,45.6351609 32.0888955,45.6007821 32.0888955,45.4956232 C33.5105623,45.493601 34.9302067,45.4956232 36.3538958,45.4956232 C36.7017289,46.0497295 37.1607877,46.450142 37.7330946,46.7251729 C39.2578979,47.4612848 40.8939269,46.9860477 41.7958663,45.5138238 C42.4207526,44.4925696 42.5137777,43.3540228 42.4672651,42.0799829 C42.3277274,42.2336766 42.2529028,42.3064789 42.190212,42.3873703 C41.1184006,43.7605022 39.6663996,44.2984302 37.9818357,44.1892268 C35.2618616,44.0132879 33.5206737,42.4460166 32.3983052,40.083987 C32.0342938,39.3155185 31.8522881,38.4863814 31.7633075,37.6430883 C31.5671458,35.7522513 31.6379258,33.8816371 32.2810126,32.0656247 C32.3780823,31.7905938 32.4913303,31.5196076 32.6126675,31.2546881 C33.5105623,29.2910488 35.0576107,28.1990146 37.1749437,27.8714044 C38.7503042,27.6267078 40.3297093,27.5700838 41.8545126,28.0837443 C44.6978461,29.0423077 46.1822037,31.0241476 46.4491454,33.7279434 C46.5017249,34.2598045 46.5280146,34.7977325 46.5280146,35.3316159 C46.5361037,38.0111443 46.5462152,40.6906727 46.5259923,43.3702011 C46.5138586,45.1093667 45.9759306,46.6928163 44.9243421,48.0841488 C43.9313999,49.3966121 42.6108474,50.1933927 40.9930189,50.5028024 C40.7584338,50.5472926 40.5278932,50.6241395 40.2953304,50.6848081 C39.7412241,50.6848081 39.1891402,50.6848081 38.6350339,50.6848081 Z M42.4915325,35.9322347 C42.4773765,35.7178724 42.4692874,35.3761062 42.4328863,35.0383845 C42.3236828,34.0535314 42.0082063,33.1435029 41.4298326,32.3305441 C41.1285121,31.9078864 40.7422555,31.5964544 40.256907,31.4144487 C38.5440311,30.7733842 36.8554226,31.5256744 36.2062689,33.2203497 C35.7067644,34.5227016 35.6278953,35.8735884 35.7573215,37.2467203 C35.8179901,37.8796957 35.9352827,38.5005374 36.1900907,39.0870002 C36.4954558,39.7846887 36.9565369,40.3307059 37.7027603,40.5774247 C38.4287608,40.8160544 39.1749842,40.8504332 39.9151407,40.6846058 C40.9889744,40.4439538 41.66644,39.7361539 42.048652,38.7351225 C42.3782846,37.8756512 42.4713097,36.9716895 42.4915325,35.9322347 Z"
					id="Shape" fill="#50B4E9"></path>
				<path
					d="M115.320103,14.5222972 C115.279658,14.7589046 115.247301,14.995512 115.198766,15.2300971 C114.871156,16.8236582 114.191668,18.2412804 113.071322,19.4324066 C112.296786,20.2574991 111.342268,20.8095831 110.258323,21.1068591 C108.302772,21.644787 106.339133,21.6427647 104.393694,21.0563019 C103.077186,20.6599339 102.011442,19.8934877 101.186349,18.7913421 C100.185318,17.4566336 99.625145,15.9540754 99.4653844,14.3018681 C99.2692227,12.2674488 99.568521,10.3280769 100.571575,8.51206442 C101.825392,6.24103771 103.782964,5.0923795 106.322955,4.88408408 C107.673842,4.77285837 109.016639,4.82948237 110.32708,5.24202863 C111.673922,5.66468632 112.772024,6.42708798 113.60925,7.56361248 C114.371651,8.59700042 114.899468,9.73756949 115.164387,10.9954311 C115.221011,11.2603505 115.269546,11.5252699 115.320103,11.7922116 C115.320103,12.7042624 115.320103,13.614291 115.320103,14.5222972 Z M103.651516,13.1552321 C103.671738,13.9843692 103.728362,14.8094617 104.005416,15.6021977 C104.682881,17.5537033 106.199595,18.3403724 108.234015,17.9783833 C109.5303,17.7478427 110.300791,16.8802822 110.723448,15.6851114 C111.091504,14.6436343 111.164307,13.5596893 111.081393,12.4656327 C111.022747,11.6830082 110.885231,10.9185843 110.537398,10.2067397 C110.169342,9.45040494 109.631414,8.86798669 108.834634,8.54644328 C106.788081,7.72135076 104.713215,8.6698027 104.001371,10.7527569 C103.734429,11.5333591 103.675783,12.340251 103.651516,13.1552321 Z"
					id="Shape" fill="#9ca4d5"></path>
				<path
					d="M3.77083041,21.1291042 C2.48667906,21.1291042 1.28746371,21.1291042 0.0478026447,21.1291042 C0.03162436,20.9996779 0.00331236174,20.8763185 0.00331236174,20.7549814 C0.00129007615,17.6851518 -0.00477678061,14.6173446 0.00735693291,11.5475151 C0.0114015041,10.5141272 0.223741491,9.51309579 0.670666606,8.57677756 C1.69798768,6.41697656 3.42704186,5.23798406 5.79109371,4.95890865 C6.75774622,4.84566066 7.70417588,4.92452979 8.63038268,5.22585035 C9.67792661,5.56559432 10.5434648,6.17632457 11.2674431,7.04388509 C11.3624905,6.96501595 11.4534934,6.90434738 11.5242734,6.82750053 C13.8519241,4.29559898 17.5891078,4.5443401 19.7104854,5.93162802 C21.1847316,6.89423596 21.9896013,8.30376901 22.3232784,9.99642205 C22.4385487,10.5828849 22.4971949,11.1875483 22.5012395,11.7861448 C22.5194401,14.7589046 22.5093287,17.7296421 22.5093287,20.7024019 C22.5093287,20.8298059 22.4951727,20.9572099 22.4850612,21.1149482 C21.2393333,21.1149482 20.0158505,21.1149482 18.737766,21.1149482 C18.737766,20.9026082 18.737766,20.7125134 18.737766,20.5203962 C18.737766,17.6305501 18.7438329,14.7386817 18.7296769,11.8488356 C18.7276546,11.4160665 18.6770975,10.9691414 18.5618272,10.5545729 C18.2787072,9.5252295 17.5607958,8.9509004 16.5132519,8.79720669 C14.6527492,8.52217585 13.2452384,9.6667895 13.1319904,11.5394259 C13.1178344,11.7659219 13.1198567,11.9944402 13.1198567,12.2209362 C13.1198567,14.981356 13.1198567,17.7417758 13.1198567,20.5021957 C13.1198567,20.6943128 13.1198567,20.8864299 13.1198567,21.1129259 C11.8660396,21.1129259 10.6567128,21.1129259 9.37862834,21.1129259 C9.37256149,20.9410316 9.36042777,20.7549814 9.36042777,20.5669088 C9.35840549,17.6608844 9.36649463,14.7528377 9.35233863,11.8468134 C9.35031635,11.4140442 9.29571463,10.9691414 9.18448893,10.5505283 C8.92968094,9.57983121 8.2764827,8.98932382 7.28556276,8.82147412 C5.49381773,8.51813128 4.1793321,9.43018208 3.85374412,10.9206066 C3.77891955,11.2664174 3.7728527,11.6304288 3.77083041,11.9843288 C3.76476355,14.82564 3.76678584,17.6689736 3.76678584,20.5102848 C3.77083041,20.6983574 3.77083041,20.8904745 3.77083041,21.1291042 Z"
					id="Path" fill="#9ca4d5"></path>
				<path
					d="M4.11057439,42.13054 C4.11057439,43.3479559 4.11057439,44.5653719 4.11057439,45.7807655 C4.11057439,46.2843146 4.11866353,46.7878637 4.10652982,47.2914128 C4.08226239,48.2459316 3.41693043,49.0326007 2.48870135,49.2226956 C2.08222195,49.3056093 0.545284899,49.3157207 0.03162436,49.2307847 C0.021512932,49.0993362 0.00331236174,48.9597985 0.00331236174,48.8182385 C0.00129007615,44.1750708 -0.0067990662,39.531903 0.0134237897,34.8887353 C0.0174683608,34.1809354 0.0943152132,33.4569571 0.254075775,32.7673578 C0.751558029,30.6075568 2.10042252,29.143422 4.15304239,28.3709089 C6.05196855,27.6550198 8.02976386,27.5680615 10.0055369,27.9866746 C11.3827134,28.2778838 12.5111487,29.0261294 13.3847761,30.1444534 C14.4383869,31.4892733 14.9884486,33.0201435 15.1380977,34.7107742 C15.2877468,36.3953381 15.1664097,38.0495677 14.6345486,39.6633516 C14.3736737,40.4540653 14.0015732,41.1921995 13.5020687,41.861576 C12.2907196,43.4794045 10.6830025,44.3206753 8.65060553,44.2842742 C8.13492271,44.2741627 7.61115074,44.219561 7.10557934,44.1123799 C5.97916627,43.8777948 5.07318233,43.2791982 4.39976123,42.3408577 C4.33707038,42.2538994 4.26629038,42.173008 4.19955496,42.0900943 C4.16719839,42.1062726 4.13888639,42.1184063 4.11057439,42.13054 Z M11.0126351,36.0798615 C11.0126351,35.934257 11.0207242,35.7866301 11.0106128,35.6410256 C10.9519665,34.6784176 10.8104065,33.7360326 10.3230357,32.8806058 C9.64557004,31.6975687 8.59195925,31.2162647 7.26533991,31.2931116 C5.9892777,31.3679361 5.11767261,32.0393349 4.59592293,33.1819263 C4.50896465,33.3720211 4.44020694,33.5742497 4.38762751,33.7785006 C4.11461896,34.8260445 4.05799496,35.8897667 4.15304239,36.9656226 C4.2076441,37.6006203 4.31482523,38.2234843 4.58985607,38.8018579 C5.18643032,40.0516304 6.1429714,40.7594304 7.57272731,40.7715641 C8.99641637,40.7836978 9.92060088,40.0617419 10.5070637,38.8301699 C10.6041334,38.6259191 10.6769357,38.4095345 10.7436711,38.19315 C10.9539888,37.5055729 11.0247688,36.7977729 11.0126351,36.0798615 Z"
					id="Shape" fill="#50B4E9"></path>
				<path
					d="M94.0355476,7.10859823 C94.0355476,6.5929154 94.0355476,6.07521029 94.0355476,5.55952747 C94.0355476,4.73039038 94.0355476,3.90327557 94.0375699,3.07413848 C94.045659,1.44013173 94.7473921,0.548303783 96.3409532,0.158002664 C96.9112377,0.0184649588 97.4916337,-0.036136752 98.1205645,0.0245318156 C98.1367428,0.145868951 98.167077,0.269228372 98.167077,0.390565507 C98.1690993,5.26427377 98.1872999,10.1359598 98.1589879,15.009668 C98.1407873,18.0774753 96.1367023,20.5123071 93.0790065,21.2079733 C91.1376123,21.6508539 89.2043073,21.5497396 87.3074034,20.9288979 C85.6875527,20.4010814 84.5409168,19.3454483 83.8088494,17.8145781 C83.3113671,16.773101 83.0403809,15.675 82.9655563,14.5324086 C82.850286,12.7669533 83.0120689,11.0277877 83.6207768,9.35131294 C84.0555682,8.15411988 84.7229225,7.10455366 85.7279984,6.30170628 C87.3074034,5.04182236 89.1112822,4.71218981 91.0567209,5.12878064 C92.12651,5.35729891 92.9839591,5.9619623 93.6715362,6.81132225 C93.7605168,6.92254795 93.8515196,7.03377366 93.9425225,7.14297708 C93.9708345,7.13286565 94.003191,7.12073194 94.0355476,7.10859823 Z M94.1427287,13.0864744 C94.1326173,12.5081007 94.0335253,11.6081837 93.6937813,10.7507346 C93.0668728,9.16324038 91.8332786,8.40488329 90.1386033,8.56868842 C89.2245302,8.65766899 88.4884182,9.07223753 88.0212703,9.86497348 C87.7684846,10.293698 87.5622114,10.7628683 87.4206514,11.2401277 C87.0768629,12.3948528 87.0930412,13.5778898 87.2750469,14.7609269 C87.3761612,15.4222143 87.5622114,16.0592342 87.8999331,16.6436748 C88.2801228,17.3049622 88.8241176,17.7700878 89.5662964,17.976361 C90.8666261,18.3343055 92.7109505,18.1785895 93.6169345,16.1724822 C94.0133025,15.2968326 94.1528402,14.3726481 94.1427287,13.0864744 Z"
					id="Shape" fill="#9ca4d5"></path>
				<path
					d="M39.3023882,16.9085942 C39.3428339,17.2038479 39.1931848,17.4465221 39.067803,17.6831296 C38.3033791,19.1229969 37.205278,20.2514323 35.6804747,20.8399174 C32.7461383,21.9744196 29.8906711,21.8045476 27.1949644,20.0835826 C25.8460999,19.2220889 24.9664056,18.0107398 24.5619485,16.4697582 C23.9855971,14.2695115 23.9613297,12.0571311 24.6772188,9.8912632 C25.6074702,7.07421937 27.6418895,5.51908176 30.5438693,5.0640675 C31.7936418,4.8679058 33.0373474,4.94475265 34.2689194,5.24202863 C36.4428764,5.7658006 37.9575683,7.07826394 38.8999533,9.0762821 C39.6805556,10.7284894 39.690667,12.495967 39.6805556,14.3200686 C35.880681,14.3200686 32.1172075,14.3200686 28.3456449,14.3200686 C28.240486,14.6577903 28.3314889,14.938888 28.3840683,15.2179634 C28.6975226,16.886349 29.8441585,17.9399598 31.5428784,18.103765 C32.1920321,18.1664558 32.8411857,18.1421884 33.480228,17.976361 C34.0161337,17.8368233 34.4671033,17.5638147 34.8129142,17.1290233 C34.9403182,16.9672405 35.0697444,16.8681485 35.2982627,16.8701708 C36.5824141,16.8823045 37.8665654,16.8782599 39.1507168,16.8802822 C39.195207,16.8802822 39.2437419,16.8984828 39.3023882,16.9085942 Z M35.385221,11.6102059 C35.4013993,10.2310072 34.6086633,9.06414839 33.3609131,8.58486671 C32.7420937,8.34623701 32.0990069,8.30983587 31.4458087,8.35837072 C30.2607493,8.44937357 29.4033002,9.02370268 28.8653723,10.0773135 C28.6247203,10.5505283 28.4427146,11.0419437 28.4204694,11.6081837 C30.7521647,11.6102059 33.0515034,11.6102059 35.385221,11.6102059 Z"
					id="Shape" fill="#9ca4d5"></path>
				<path
					d="M56.1015145,27.6408638 C57.351287,27.6651312 58.5626361,27.8410701 59.7193835,28.3345078 C60.7123257,28.7591877 61.5333736,29.4022745 62.1906165,30.2556791 C63.6790186,32.1889841 64.2189689,34.3932754 64.0551638,36.7957506 C63.9479826,38.3792003 63.4889238,39.8494019 62.619341,41.1861327 C61.6830228,42.626 60.3988714,43.5865856 58.7325081,43.9991319 C56.7162894,44.4986364 54.7101821,44.4723467 52.7384536,43.7685914 C51.607996,43.3661565 50.6858337,42.6664457 49.9517441,41.7179938 C48.8779104,40.3307059 48.2975145,38.7513008 48.145843,37.0141575 C47.9496813,34.7633536 48.3703168,32.6601766 49.6362675,30.7491167 C50.786948,29.0119734 52.4229771,28.0756552 54.4553741,27.7864684 C54.9993689,27.7096215 55.5514529,27.6873764 56.1015145,27.6408638 Z M52.3521971,36.3083798 C52.3542194,36.8665306 52.4290439,37.7361134 52.7465428,38.5692951 C53.2925599,39.999051 54.3016804,40.8221213 55.856818,40.8929012 C57.4726242,40.9677258 58.6273492,40.3064384 59.2886366,38.8382591 C59.3816618,38.631986 59.4564863,38.4156014 59.5191772,38.1971946 C59.8022972,37.1840295 59.8568989,36.1526638 59.7578069,35.1071422 C59.6890492,34.3912531 59.5495115,33.6935646 59.2299904,33.0423886 C58.7871098,32.1364047 58.1116664,31.4953401 57.1126573,31.2445767 C56.423058,31.0706601 55.729414,31.0686379 55.0398146,31.2486213 C53.824421,31.5640978 53.1206656,32.4073909 52.7101416,33.5378486 C52.4209548,34.3265399 52.3521971,35.1516325 52.3521971,36.3083798 Z"
					id="Shape" fill="#50B4E9"></path>
				<path
					d="M72.2332867,10.3240323 C70.932957,10.3240323 69.6407166,10.3240323 68.3504984,10.3240323 C68.2311835,8.44330671 69.4162429,6.48371198 71.1574307,5.65053032 C71.867253,5.31078634 72.6215655,5.11462464 73.3981232,5.01957722 C75.1453779,4.80319266 76.8703875,4.88610637 78.5488846,5.46043547 C78.7632468,5.53323776 78.9735645,5.62424061 79.1838822,5.70715432 C80.8158667,6.34417428 81.5519787,7.6040582 81.6510707,9.28862209 C81.6874718,9.90339691 81.6672489,10.5222163 81.6672489,11.1410357 C81.6692712,12.5707916 81.6814049,14.0005475 81.6611821,15.4303034 C81.6530929,15.9621645 81.6106249,16.5041371 81.5034438,17.0258867 C81.1556107,18.7064061 80.1303119,19.8550643 78.5974194,20.5810648 C77.5235858,21.0886585 76.3789721,21.3212213 75.2080688,21.4122242 C74.0573883,21.5012048 72.9006409,21.5295167 71.754005,21.3495333 C71.4021273,21.2949316 71.0502496,21.2140402 70.7145502,21.0967476 C68.957184,20.475906 67.9763755,19.2200666 67.8327932,17.3696753 C67.7822361,16.7306331 67.8267264,16.0632788 67.9561527,15.4363703 C68.2534286,13.9803247 69.1614349,12.9853601 70.5082771,12.3847413 C71.513353,11.9378162 72.5851644,11.7497437 73.6670872,11.6021168 C74.3910654,11.5050471 75.1211105,11.4302225 75.8390219,11.3007962 C76.2171893,11.2320385 76.5953567,11.1066568 76.9431898,10.9428517 C77.950288,10.4736814 77.6772795,8.94281126 76.9957692,8.62935699 C75.7722865,8.0671616 74.5204917,8.00447074 73.2788083,8.57677756 C72.8945741,8.7547387 72.6660558,9.10661639 72.5103398,9.49085065 C72.405181,9.74363635 72.334401,10.0126003 72.2332867,10.3240323 Z M77.5741429,13.4403744 C77.0382372,13.6163132 76.5569333,13.8023635 76.0614733,13.9297675 C75.5599465,14.0591938 75.0402191,14.1117732 74.53667,14.2371549 C74.0048089,14.3686035 73.4587917,14.4919629 72.9633318,14.7164366 C72.1159941,15.1026932 71.754005,15.9682314 71.9339884,16.9672405 C72.0897044,17.8287341 72.6620112,18.3423947 73.6185523,18.4475535 C74.5548705,18.5486678 75.4143419,18.3039712 76.2171893,17.8226673 C76.7571395,17.4991016 77.1150841,17.0380205 77.3254018,16.4535799 C77.6793018,15.4687268 77.5620092,14.4535395 77.5741429,13.4403744 Z"
					id="Shape" fill="#9ca4d5"></path>
				<path
					d="M20.7034276,33.250684 C19.4010757,33.250684 18.1209689,33.250684 16.7842382,33.250684 C16.8105279,33.0019429 16.8267062,32.783536 16.8590627,32.5651292 C17.2068959,30.2051219 18.5234038,28.6944746 20.8510545,28.1403683 C23.0351229,27.6206409 25.2090799,27.6974878 27.3264129,28.4902237 C29.2860077,29.2243134 30.1191893,30.4316179 30.1414345,32.5267058 C30.159635,34.1506011 30.1535682,35.7744964 30.1434568,37.400414 C30.1394122,38.065746 30.1353676,38.7331002 30.0625653,39.3923653 C29.8522476,41.3155589 28.8168374,42.6563343 27.0877832,43.4874937 C26.0624844,43.9789091 24.9664056,44.2134942 23.8460594,44.3105639 C22.6144875,44.417745 21.3768487,44.4521239 20.1493214,44.247873 C19.7367751,44.1791153 19.318162,44.0719342 18.9319055,43.9141959 C17.3646341,43.2690868 16.4889845,42.0820052 16.3069788,40.4014858 C16.2321542,39.7058196 16.2523771,39.0040865 16.4182045,38.3185317 C16.7660376,36.8725975 17.6558433,35.8796553 19.0047077,35.2871256 C20.0421402,34.8321113 21.1463082,34.6501056 22.2605875,34.5004565 C23.0816355,34.3892308 23.8986389,34.2618268 24.7156422,34.128356 C24.8895588,34.100044 25.0614531,34.0373531 25.2232359,33.9645508 C25.755097,33.7279434 26.0887742,33.3578651 26.0645067,32.7289343 C26.0402393,32.0979812 25.7935205,31.614655 25.1848125,31.4002927 C24.1777143,31.0463927 23.1463486,31.0019024 22.1190275,31.3153567 C21.5750327,31.4811841 21.2009099,31.8613738 20.9885699,32.3851458 C20.883411,32.6520875 20.8065642,32.9331852 20.7034276,33.250684 Z M26.0988856,36.3346695 C25.528601,36.5267867 25.0634754,36.7108147 24.5821714,36.8382186 C24.0806446,36.9696672 23.5588949,37.0202243 23.0573681,37.1456061 C22.4931504,37.287166 21.9147767,37.41457 21.393027,37.6572443 C20.5740014,38.0394563 20.2423465,38.8787048 20.4081739,39.8878253 C20.5416448,40.706851 21.081595,41.2124224 21.9976904,41.3539824 C22.8288498,41.4813864 23.6054074,41.2852247 24.3536531,40.9313247 C25.2798599,40.4924887 25.825877,39.7604213 25.9492364,38.75939 C26.0442839,37.9747431 26.0503507,37.1779626 26.0988856,36.3346695 Z"
					id="Shape" fill="#50B4E9"></path>
				<path
					d="M66.4697728,15.3251446 C66.4475276,16.0329445 66.2675442,16.6558085 65.9985802,17.2503604 C64.8600334,19.7579946 62.9105501,21.1574162 60.1703532,21.4344693 C59.0338287,21.5497396 57.9013487,21.4991825 56.7749357,21.2726865 C54.4472849,20.8035162 52.8860805,19.4303843 52.0003194,17.2564273 C51.3612771,15.6871337 51.2338731,14.0450378 51.3612771,12.3766522 C51.4421686,11.3028185 51.6464194,10.2532523 52.0812108,9.26031009 C53.1327993,6.86187939 54.979146,5.4847029 57.549471,5.08226807 C59.0742744,4.84363837 60.5909886,4.94070808 62.0915245,5.33505377 C64.6214037,5.99836344 66.0349814,7.64652619 66.4394385,10.1986506 C66.4738173,10.421102 66.5021293,10.6435534 66.5385305,10.902406 C65.0663066,10.902406 63.6264392,10.902406 62.1481485,10.902406 C62.1137696,10.7770243 62.0773685,10.6395089 62.038945,10.5040157 C61.6971788,9.24008724 60.9671337,8.59902271 59.6870269,8.445329 C58.0105521,8.24310044 56.7506682,9.01359125 56.2066734,10.6111969 C55.8183946,11.7517659 55.7739043,12.934803 55.8527734,14.1259292 C55.899286,14.8236177 56.0044448,15.5111948 56.2754311,16.1664154 C56.7830248,17.3898982 57.6890087,18.0269181 59.0176504,18.0572524 C59.1147201,18.0592747 59.2117898,18.0592747 59.3108818,18.0572524 C60.8377074,18.018829 61.6041536,17.4040542 61.9742319,15.9237411 C62.0207445,15.7356685 62.0571456,15.547596 62.1056805,15.3271669 C63.5455478,15.3251446 64.9833928,15.3251446 66.4697728,15.3251446 Z"
					id="Path" fill="#9ca4d5"></path>
				<path
					d="M50.6534772,5.0074435 C50.6534772,6.39473142 50.6534772,7.75168504 50.6534772,9.16324038 C50.3460898,9.14503981 50.0589252,9.12886153 49.7717607,9.11470553 C49.1003618,9.08032667 48.4390745,9.13897296 47.8020545,9.36142437 C46.8414688,9.69510149 46.2226495,10.3523443 45.9516632,11.3351751 C45.7413455,12.0955545 45.7191003,12.8741344 45.7191003,13.6547367 C45.7150558,15.9459862 45.7170781,18.2352135 45.7170781,20.5264631 C45.7170781,20.7165579 45.7170781,20.9086751 45.7170781,21.1210151 C44.3196787,21.1210151 42.9809257,21.1210151 41.6118383,21.1210151 C41.6037492,20.9349648 41.5895932,20.7772265 41.5895932,20.6194882 C41.5875709,18.004673 41.5794817,15.3898577 41.5875709,12.7730202 C41.5916155,11.5920054 41.8140669,10.4473917 42.2872817,9.36142437 C43.2539342,7.13893251 44.9829884,5.84062516 47.30255,5.2743852 C48.2550465,5.04182236 49.2237213,4.94677493 50.2045298,4.97104236 C50.3440675,4.97306465 50.4856275,4.9932875 50.6534772,5.0074435 Z"
					id="Path" fill="#9ca4d5"></path>
			</g>
		</g>
	</g>
</svg>