<svg width="200px" height="54px" viewBox="0 0 200 54" version="1.1" xmlns="http://www.w3.org/2000/svg"
	xmlns:xlink="http://www.w3.org/1999/xlink">
	<g id="Page-1" stroke="none" stroke-width="1" fill="none" fill-rule="evenodd">
		<g id="paypal" transform="translate(-0.000089, 0.000000)" fill-rule="nonzero">
			<path
				d="M63.9531537,10.6033384 C63.5415398,10.6033384 63.1919338,10.9021571 63.1275638,11.3090466 L58.3630005,41.5245749 C58.327964,41.7479413 58.3923963,41.9754563 58.5393515,42.1472826 C58.6863067,42.3191089 58.9010755,42.4180782 59.1271731,42.4180782 L64.7775625,42.4180782 C65.1885858,42.4180782 65.5387824,42.118669 65.6031525,41.71237 L67.0027577,32.8393453 C67.0665372,32.4330464 67.4167338,32.1336371 67.8283476,32.1336371 L72.9655485,32.1336371 C78.9679061,32.1336371 84.0631779,27.7541129 84.9938858,21.8196685 C85.932271,15.8350274 81.2568808,10.6163306 74.630311,10.6033384 L63.9531537,10.6033384 Z M69.4458661,17.3486089 L73.5560992,17.3486089 C76.9399549,17.3486089 78.0419226,19.345261 77.6934977,21.5533302 C77.3450727,23.7661238 75.6336567,25.3960438 72.360234,25.3960438 L68.1767726,25.3960438 L69.4458661,17.3486089 Z M96.4860031,19.4024702 C95.0592326,19.4078593 93.4175015,19.700182 91.5743927,20.4678979 C87.34664,22.2301013 85.3163265,25.8720277 84.4541225,28.5271438 C84.4541225,28.5271438 81.7098332,36.6277282 87.9100254,41.0781186 C87.9100254,41.0781186 93.6602179,45.3625641 100.133244,40.8141424 L100.02163,41.5245749 C99.9866255,41.7477377 100.050907,41.9750526 100.197597,42.1468343 C100.344287,42.3186161 100.558731,42.417703 100.784622,42.4180782 L106.148594,42.4180782 C106.560208,42.4180782 106.909814,42.118669 106.974184,41.71237 L110.236977,21.0206534 C110.272364,20.7973067 110.208258,20.5696581 110.061524,20.397597 C109.914789,20.225536 109.700118,20.1262902 109.473985,20.125969 L104.110013,20.125969 C103.698399,20.125969 103.348203,20.4253783 103.284423,20.8316772 L103.10903,21.9454559 C103.10903,21.9454559 100.766315,19.3865995 96.4854126,19.4024702 L96.4860031,19.4024702 Z M96.6613967,25.9381694 C97.2773411,25.9381694 97.8407265,26.0232087 98.3462379,26.1856101 C100.660606,26.928523 101.97281,29.1519465 101.593086,31.561984 C101.124779,34.5295015 98.6911196,36.7145392 95.5700589,36.7145392 C94.9547051,36.7145392 94.3913197,36.6300904 93.8852177,36.467689 C91.5714399,35.7247761 90.2509685,33.5013526 90.6306926,31.0913151 C91.0989993,28.1237976 93.5403361,25.9375788 96.6613967,25.9375788 L96.6613967,25.9381694 Z"
				id="Shape" fill="#003087"></path>
			<path
				d="M141.19719,10.6033384 C140.785576,10.6033384 140.43597,10.9021571 140.3716,11.3090466 L135.607037,41.5245749 C135.572,41.7479413 135.636432,41.9754563 135.783388,42.1472826 C135.930343,42.3191089 136.145112,42.4180782 136.371209,42.4180782 L142.021599,42.4180782 C142.432622,42.4180782 142.782819,42.118669 142.847189,41.71237 L144.246794,32.8393453 C144.310573,32.4330464 144.66077,32.1336371 145.072384,32.1336371 L150.209585,32.1336371 C156.211942,32.1336371 161.306623,27.7541129 162.236741,21.8196685 C163.175717,15.8350274 158.500917,10.6163306 151.874347,10.6033384 L141.19719,10.6033384 Z M146.689902,17.3486089 L150.800135,17.3486089 C154.183991,17.3486089 155.285959,19.345261 154.937534,21.5533302 C154.589109,23.7661238 152.878283,25.3960438 149.60427,25.3960438 L145.420809,25.3960438 L146.689902,17.3486089 Z M173.729449,19.4024702 C172.302678,19.4078593 170.660947,19.700182 168.817838,20.4678979 C164.590086,22.2301013 162.559772,25.8720277 161.697568,28.5271438 C161.697568,28.5271438 158.95446,36.6277282 165.154652,41.0781186 C165.154652,41.0781186 170.903663,45.3625641 177.377281,40.8141424 L177.265666,41.5245749 C177.23063,41.7479413 177.295062,41.9754563 177.442018,42.1472826 C177.588973,42.3191089 177.803742,42.4180478 178.029839,42.4180782 L183.393221,42.4180782 C183.804835,42.4180782 184.154441,42.118669 184.218811,41.71237 L187.482785,21.0206534 C187.518204,20.797103 187.453948,20.569254 187.306948,20.3971483 C187.159948,20.2250426 186.944951,20.1259449 186.718612,20.125969 L181.35464,20.125969 C180.943026,20.125969 180.592829,20.4253783 180.52905,20.8316772 L180.353656,21.9454559 C180.353656,21.9454559 178.010942,19.3865995 173.730039,19.4024702 L173.729449,19.4024702 Z M173.904842,25.9381694 C174.520787,25.9381694 175.084172,26.0232087 175.589683,26.1856101 C177.904052,26.928523 179.216256,29.1519465 178.836531,31.561984 C178.368225,34.5295015 175.934565,36.7145392 172.813504,36.7145392 C172.198151,36.7145392 171.634765,36.6300904 171.128663,36.467689 C168.814885,35.7247761 167.494414,33.5013526 167.874138,31.0913151 C168.342445,28.1237976 170.783782,25.9375788 173.904842,25.9375788 L173.904842,25.9381694 Z"
				id="Shape" fill="#0070E0"></path>
			<path
				d="M112.782251,20.125969 C112.357054,20.125969 112.054692,20.5411262 112.184613,20.9456535 L118.065318,39.1942617 L112.747999,47.7938615 C112.489928,48.2113809 112.789928,48.7505537 113.280675,48.7505537 L119.565316,48.7505537 C119.930845,48.7502347 120.269654,48.5589971 120.45882,48.2462234 L136.882626,21.0767557 C137.134791,20.6592364 136.83361,20.1253785 136.345816,20.1253785 L130.061765,20.1253785 C129.692551,20.1256947 129.350892,20.3207682 129.162947,20.6385671 L122.698188,31.5531258 L119.416498,20.7194725 C119.309608,20.3669137 118.984214,20.1253785 118.616301,20.1253785 L112.782251,20.125969 Z"
				id="Path" fill="#003087"></path>
			<path
				d="M193.577268,10.6033384 C193.166245,10.6033384 192.816048,10.9027477 192.751678,11.3090466 L187.985934,41.5233938 C187.950515,41.7469442 188.014771,41.9747932 188.161771,42.1468989 C188.308771,42.3190046 188.523768,42.4180782 188.750107,42.4180782 L194.400496,42.4180782 C194.811519,42.4180782 195.161716,42.118669 195.226086,41.71237 L199.990649,11.4968417 C200.025654,11.2736789 199.961372,11.0463641 199.814682,10.8745823 C199.667992,10.7028005 199.453549,10.6037136 199.227658,10.6033384 L193.577268,10.6033384 Z"
				id="Path" fill="#0070E0"></path>
			<path
				d="M16.8472838,10.6033384 C16.095362,10.6039595 15.4554144,11.1510195 15.3378361,11.8936918 L12.8297672,27.8007664 C12.9466962,27.0578536 13.5868532,26.510413 14.3392148,26.510413 L21.6886187,26.510413 C29.0852667,26.510413 35.3616399,21.114551 36.5084894,13.8023518 C36.5938316,13.2564377 36.6421701,12.7053785 36.6531743,12.1529436 C34.7734514,11.1673144 32.5653822,10.6033384 30.1458958,10.6033384 L16.8472838,10.6033384 Z"
				id="Path" fill="#001C64"></path>
			<path
				d="M36.6531743,12.1535341 C36.6421701,12.7059691 36.5938316,13.2570282 36.5084894,13.8029423 C35.3616399,21.1151415 29.0846761,26.5110036 21.6886187,26.5110036 L14.3392148,26.5110036 C13.5874437,26.5110036 12.9466962,27.0578536 12.8297672,27.8013569 L10.5236665,42.4186687 L9.07917943,51.5887405 C9.02212609,51.9472962 9.12506046,52.3128451 9.36082592,52.5889463 C9.59659139,52.8650476 9.94150581,53.023779 10.3045722,53.023779 L18.2817315,53.023779 C19.0336533,53.0231578 19.6736009,52.4760977 19.7911792,51.7334255 L21.8923587,38.406467 C22.0100072,37.6633532 22.6506184,37.116154 23.4029875,37.1161137 L28.0996375,37.1161137 C35.4962855,37.1161137 41.7726587,31.7202516 42.9195082,24.4080524 C43.7338776,19.2182926 41.1201001,14.4962489 36.6531743,12.1541247 L36.6531743,12.1535341 Z"
				id="Path" fill="#0070E0"></path>
			<path
				d="M7.78469222,0 C7.03292114,0 6.39217359,0.54684998 6.27524455,1.28917225 L0.0154067572,40.9836304 C-0.103293941,41.7371732 0.478989084,42.4186687 1.24198063,42.4186687 L10.5248476,42.4186687 L12.8297672,27.8013569 L15.3378361,11.8942823 C15.4554144,11.1516101 16.095362,10.60455 16.8472838,10.603929 L30.1458958,10.603929 C32.5659727,10.603929 34.7734514,11.1684955 36.6531743,12.1535341 C36.7819144,5.49625569 31.2886115,0 23.7360581,0 L7.78469222,0 Z"
				id="Path" fill="#003087"></path>
		</g>
	</g>
</svg>