<svg width="200px" height="35px" viewBox="0 0 200 35" version="1.1" xmlns="http://www.w3.org/2000/svg"
	xmlns:xlink="http://www.w3.org/1999/xlink">
	<g id="Page-1" stroke="none" stroke-width="1" fill="none" fill-rule="evenodd">
		<g id="santander" fill="#EA1D25" fill-rule="nonzero">
			<path
				d="M26.4483627,16.0369437 C26.3643997,14.7774979 26.0285474,13.5180521 25.356843,12.4265323 L19.6473552,2.43492863 C19.2275399,1.67926113 18.8916877,0.839630563 18.7237615,0 L18.4718724,0.419815281 C17.0445004,2.85474391 17.0445004,5.96137699 18.4718724,8.39630563 L23.0898405,16.372796 C24.5172124,18.8077246 24.5172124,21.9143577 23.0898405,24.3492863 L22.8379513,24.7691016 C22.6700252,23.929471 22.334173,23.0898405 21.9143577,22.334173 L17.7162049,15.0293871 L15.0293871,10.3274559 C14.6095718,9.57178841 14.2737196,8.73215785 14.1057935,7.89252729 L13.8539043,8.31234257 C12.4265323,10.7472712 12.4265323,13.7699412 13.8539043,16.2888329 L13.8539043,16.2888329 L18.4718724,24.2653233 C19.8992443,26.7002519 19.8992443,29.806885 18.4718724,32.2418136 L18.2199832,32.6616289 C18.0520571,31.8219983 17.7162049,30.9823678 17.2963896,30.2267003 L11.5029387,20.2350966 C10.7472712,18.8916877 10.411419,17.3803526 10.411419,15.8690176 C4.28211587,17.4643157 0,20.906801 0,24.8530647 C0,30.3946264 8.22837951,34.8446683 18.3879093,34.8446683 C28.5474391,34.8446683 36.7758186,30.3946264 36.7758186,24.8530647 C36.8597817,21.0747271 32.6616289,17.6322418 26.4483627,16.0369437 Z M43.8287154,33.0814442 C43.9126784,31.6540722 44.0806045,30.7304786 44.5004198,29.5549958 C46.4315701,30.4785894 48.9504618,30.8984047 50.797649,30.8984047 C53.9882452,30.8984047 55.8354324,29.890848 55.8354324,27.7917716 C55.8354324,25.7766583 54.4920235,24.8530647 51.3014274,23.4256927 L49.5382032,22.7539882 C46.263644,21.3266163 44.0806045,19.4794291 44.0806045,15.8690176 C44.0806045,11.922754 46.8513854,9.4038623 52.3929471,9.4038623 C54.6599496,9.4038623 56.759026,9.73971453 58.6901763,10.411419 C58.6062133,11.7548279 58.3543241,12.8463476 58.0184719,13.8539043 C56.1712846,13.1821998 53.9042821,12.8463476 52.308984,12.8463476 C49.286314,12.8463476 47.9429051,14.0218304 47.9429051,15.8690176 C47.9429051,17.6322418 49.286314,18.7237615 51.7212427,19.7313182 L53.5684299,20.4869857 C57.9345088,22.334173 59.7816961,24.3492863 59.7816961,27.7078086 C59.7816961,31.6540722 56.759026,34.4248531 50.8816121,34.4248531 C48.1108312,34.4248531 45.7598657,34.0050378 43.8287154,33.0814442 L43.8287154,33.0814442 Z M78.3375315,16.5407221 L78.3375315,33.8371117 L74.8110831,33.8371117 L74.643157,31.7380353 C73.6356003,33.2493703 72.2082284,34.256927 69.7732997,34.256927 C65.2392947,34.256927 62.1326616,30.8984047 62.1326616,25.1049538 C62.1326616,19.0596138 65.4072208,15.5331654 71.7884131,15.5331654 C74.3073048,15.6171285 76.4063812,15.8690176 78.3375315,16.5407221 Z M74.559194,29.890848 L74.559194,19.0596138 C73.8035264,18.8916877 72.8799328,18.8916877 71.7884131,18.8916877 C67.8421495,18.8916877 65.9949622,21.3266163 65.9949622,25.1889169 C65.9949622,28.7153652 67.4223342,31.2342569 70.7808564,31.2342569 C72.3761545,31.1502939 73.5516373,30.6465155 74.559194,29.890848 Z M97.8169605,22.2502099 L97.8169605,33.8371117 L94.038623,33.8371117 L94.038623,22.9219144 C94.038623,20.1511335 93.1150294,18.8916877 89.3366919,18.8916877 C88.4130982,18.8916877 87.4055416,18.9756507 86.3140218,19.1435768 L86.3140218,33.8371117 L82.5356843,33.8371117 L82.5356843,16.5407221 C84.9706129,15.9529807 87.6574307,15.5331654 89.4206549,15.5331654 C95.8018472,15.6171285 97.8169605,18.0520571 97.8169605,22.2502099 Z M108.396306,31.0663308 C109.487825,31.0663308 110.579345,30.8984047 111.335013,30.5625525 C111.25105,31.5701092 111.083123,32.7455919 110.915197,33.7531486 C109.907641,34.1729639 108.732158,34.34089 107.724601,34.34089 C104.030227,34.34089 101.679261,32.6616289 101.679261,28.4634761 L101.679261,10.2434929 C102.854744,9.82367758 104.282116,9.65575147 105.457599,9.65575147 L105.457599,16.2048699 L111.502939,16.2048699 C111.418976,17.3803526 111.335013,18.4718724 111.167086,19.4794291 L105.457599,19.4794291 L105.457599,27.9596977 C105.457599,30.1427372 106.549118,31.0663308 108.396306,31.0663308 L108.396306,31.0663308 Z M128.799328,16.5407221 L128.799328,33.8371117 L125.27288,33.8371117 L125.104954,31.7380353 C124.097397,33.2493703 122.670025,34.256927 120.235097,34.256927 C115.701092,34.256927 112.594458,30.8984047 112.594458,25.1049538 C112.594458,19.0596138 115.869018,15.5331654 122.25021,15.5331654 C124.769102,15.6171285 126.784215,15.8690176 128.799328,16.5407221 L128.799328,16.5407221 Z M124.937028,29.890848 L124.937028,19.0596138 C124.18136,18.8916877 123.257767,18.8916877 122.166247,18.8916877 C118.219983,18.8916877 116.372796,21.3266163 116.372796,25.1889169 C116.372796,28.7153652 117.800168,31.2342569 121.15869,31.2342569 C122.753988,31.1502939 124.013434,30.6465155 124.937028,29.890848 L124.937028,29.890848 Z M148.278757,22.2502099 L148.278757,33.8371117 L144.416457,33.8371117 L144.416457,22.9219144 C144.416457,20.1511335 143.492863,18.8916877 139.714526,18.8916877 C138.790932,18.8916877 137.783375,18.9756507 136.691856,19.1435768 L136.691856,33.8371117 L132.913518,33.8371117 L132.913518,16.5407221 C135.348447,15.9529807 138.035264,15.5331654 139.798489,15.5331654 C146.179681,15.6171285 148.278757,18.0520571 148.278757,22.2502099 L148.278757,22.2502099 Z M167.506297,9.65575147 L167.506297,33.8371117 L163.979849,33.8371117 L163.811923,31.6540722 C162.804366,33.2493703 161.376994,34.256927 158.858102,34.256927 C154.324097,34.256927 151.217464,30.8984047 151.217464,25.1049538 C151.217464,19.0596138 154.492024,15.5331654 160.873216,15.5331654 C161.880772,15.5331654 162.804366,15.6171285 163.72796,15.7850546 L163.72796,10.0755668 C164.903442,9.73971453 166.246851,9.65575147 167.506297,9.65575147 L167.506297,9.65575147 Z M163.72796,29.890848 L163.72796,19.2275399 C162.720403,19.0596138 161.712846,18.8916877 160.70529,18.8916877 C156.926952,18.8916877 155.163728,21.2426532 155.163728,25.1889169 C155.163728,28.7153652 156.5911,31.2342569 159.949622,31.2342569 C161.460957,31.1502939 162.720403,30.6465155 163.72796,29.890848 Z M186.649874,26.4483627 L174.475231,26.4483627 C174.979009,29.5549958 176.742233,30.9823678 180.184719,30.9823678 C182.283795,30.9823678 184.382872,30.5625525 186.230059,29.6389589 C186.062133,30.6465155 185.894207,31.9899244 185.642317,33.0814442 C183.879093,33.8371117 182.115869,34.1729639 180.016793,34.1729639 C173.6356,34.1729639 170.61293,30.6465155 170.61293,24.7691016 C170.61293,19.6473552 172.963896,15.5331654 179.009236,15.5331654 C184.466835,15.5331654 186.8178,19.0596138 186.8178,23.4256927 C186.8178,24.6011755 186.8178,25.440806 186.649874,26.4483627 L186.649874,26.4483627 Z M174.475231,23.2577666 L183.039463,23.2577666 C183.039463,20.4030227 181.528128,18.7237615 178.925273,18.7237615 C176.154492,18.8077246 174.72712,20.3190596 174.475231,23.2577666 L174.475231,23.2577666 Z M200,15.7850546 C200,16.9605374 199.832074,18.3039463 199.664148,19.0596138 C198.740554,18.9756507 197.900924,18.8916877 196.809404,18.8916877 C195.88581,18.8916877 194.962217,18.9756507 194.038623,19.0596138 L194.038623,33.8371117 L190.260285,33.8371117 L190.260285,16.5407221 C191.855584,15.9529807 194.626364,15.5331654 196.725441,15.5331654 C197.816961,15.6171285 199.160369,15.6171285 200,15.7850546 L200,15.7850546 Z"
				id="path6"></path>
		</g>
	</g>
</svg>