<svg width="200px" height="44px" viewBox="0 0 200 44" version="1.1" xmlns="http://www.w3.org/2000/svg"
	xmlns:xlink="http://www.w3.org/1999/xlink">
	<g id="Page-1" stroke="none" stroke-width="1" fill="none" fill-rule="evenodd">
		<g id="tether" fill="#039393">
			<path
				d="M11.4063465,0 L41.7672318,0 C42.5056224,0 43.1571435,0.390912686 43.5046215,0.998999086 L52.365309,16.3748981 C52.8430912,17.1567234 52.6693522,18.1991573 52.0178311,18.8072437 L27.6943751,42.8700912 C26.9125497,43.6519166 25.6529422,43.6519166 24.8711168,42.8700912 L0.591095527,18.8072437 C-0.0604256164,18.1557225 -0.190729845,17.1132887 0.287052327,16.2880286 L9.75582627,0.868694857 C10.0598695,0.347477943 10.7113906,0 11.4063465,0 Z M37.8146702,6.86268937 L37.8146702,11.1627289 L29.1711563,11.1627289 L29.1711563,14.1597262 C35.2520203,14.4637694 39.8126683,15.8102464 39.8126683,17.3738971 L39.8126683,20.6749376 C39.7692336,22.2385883 35.2085856,23.5416306 29.1711563,23.8891086 L29.1711563,31.2295801 L23.4377703,31.2295801 L23.4377703,23.8891086 C17.3569063,23.5850654 12.7962583,22.2385883 12.7962583,20.6749376 L12.7962583,17.3738971 C12.839693,15.8102464 17.400341,14.5072041 23.4377703,14.1597262 L23.4377703,11.1627289 L14.7942564,11.1627289 L14.7942564,6.86268937 L37.8146702,6.86268937 Z M26.3044633,21.6305019 C32.77624,21.6305019 38.2055828,20.5011986 39.5086251,19.0244174 C38.3793218,17.7648098 34.3398907,16.7658107 29.1711563,16.5052023 L29.1711563,19.6325038 C28.2590267,19.6759385 27.3034624,19.7193733 26.3044633,19.7193733 C25.3054642,19.7193733 24.3498999,19.6759385 23.4377703,19.6325038 L23.4377703,16.5052023 C18.2690359,16.7658107 14.2296048,17.7648098 13.1003015,19.0244174 C14.4467785,20.5011986 19.8326866,21.6305019 26.3044633,21.6305019 Z"
				id="Shape"></path>
			<path
				d="M64.1795591,8.33947063 L71.1725527,7.55764526 L71.1725527,14.3768999 L77.2534167,14.3768999 L77.2534167,20.2840249 L71.1291179,20.2840249 L71.1291179,29.4487557 C71.1291179,31.6204928 72.0412475,32.7063614 73.8655067,32.7063614 C75.0382448,32.7063614 75.9938091,32.4891877 76.7756345,32.098275 L78.38272,38.0054 C76.7756345,38.6134864 75.0816795,39.0043991 73.3008551,39.0912686 C70.4775968,39.2215728 68.2189902,38.5266169 66.5684699,37.0498357 C64.9613844,35.5296197 64.1361243,32.9669698 64.1361243,29.4053209 L64.1361243,20.2405902 L59.9229543,20.2405902 L59.9229543,14.3334651 L64.2229938,14.3334651 L64.2229938,8.33947063 L64.1795591,8.33947063 Z"
				id="Path" fill-rule="nonzero"></path>
			<path
				d="M103.531436,28.7537998 L85.8534958,28.7537998 C86.0272347,30.0134073 86.7221906,31.0558411 87.8514939,31.8811013 C88.9807972,32.6629266 90.5010132,33.0538393 92.3687072,33.0538393 C95.0616612,33.0538393 97.1465289,32.4023182 98.6233102,31.1427106 L102.575872,35.5730544 C100.186961,37.9619653 96.7121815,39.1781381 92.238403,39.1781381 C87.9383634,39.1781381 84.637323,38.0054 82.2484121,35.6599239 C79.902936,33.3144478 78.7301979,30.1437115 78.7301979,26.1911499 C78.7301979,22.4557621 79.902936,19.4153301 82.2049774,17.1132887 C84.5070187,14.7678126 87.5908855,13.5950745 91.5000123,13.5950745 C95.7566171,13.5950745 99.0142228,14.8981168 101.229395,17.5476361 C103.531436,20.1537207 104.313261,23.8891086 103.531436,28.7537998 Z M85.8534958,23.5416306 L97.2768331,23.5416306 C97.2333984,22.2820231 96.625312,21.3264587 95.5394434,20.6749376 C94.4535748,19.9799817 93.1070978,19.6325038 91.5434471,19.6325038 C90.1535353,19.6325038 88.9373625,19.9799817 87.9383634,20.6749376 C86.8959296,21.3698935 86.2009737,22.3254578 85.8534958,23.5416306 Z"
				id="Shape" fill-rule="nonzero"></path>
			<path
				d="M109.395126,8.33947063 L116.38812,7.55764526 L116.38812,14.3768999 L122.468984,14.3768999 L122.468984,20.2840249 L116.344685,20.2840249 L116.344685,29.4487557 C116.344685,31.6204928 117.256815,32.7063614 119.081074,32.7063614 C120.253812,32.7063614 121.209376,32.4891877 121.991202,32.098275 L123.598287,38.0054 C121.991202,38.6134864 120.340682,39.0043991 118.516422,39.0912686 C115.693164,39.2215728 113.434557,38.5266169 111.784037,37.0498357 C110.176952,35.5296197 109.351692,32.9669698 109.351692,29.4053209 L109.351692,20.2405902 L105.095087,20.2405902 L105.095087,14.3334651 L109.395126,14.3334651 L109.395126,8.33947063 Z"
				id="Path" fill-rule="nonzero"></path>
			<path
				d="M126.247807,4.03943109 L133.32767,4.03943109 L133.32767,17.2001582 C135.065059,14.9415515 137.497405,13.8122482 140.624707,13.8122482 C147.009614,13.8122482 150.223785,17.7213751 150.223785,25.4961941 L150.223785,38.5700517 L143.230791,38.5700517 L143.230791,25.5396288 C143.230791,23.8456738 142.796444,22.5426315 141.971184,21.6305019 C141.145923,20.7183723 140.060055,20.2405902 138.670143,20.2405902 C137.149927,20.2405902 135.846885,20.7618071 134.804451,21.8042409 C133.805452,22.8466747 133.284235,24.323456 133.284235,26.1911499 L133.284235,38.5266169 L126.291241,38.5266169 L126.291241,4.03943109 L126.247807,4.03943109 Z"
				id="Path" fill-rule="nonzero"></path>
			<path
				d="M177.717977,28.7537998 L160.040037,28.7537998 C160.213776,30.0134073 160.908731,31.0558411 162.038035,31.8811013 C163.167338,32.6629266 164.687554,33.0538393 166.555248,33.0538393 C169.248202,33.0538393 171.33307,32.4023182 172.809851,31.1427106 L176.762413,35.5296197 C174.373502,37.9185305 170.898722,39.1347033 166.424944,39.1347033 C162.124904,39.1347033 158.823864,37.9619653 156.434953,35.6164891 C154.089477,33.271013 152.916739,30.1002768 152.916739,26.1477152 C152.916739,22.4123273 154.089477,19.3718953 156.391518,17.0698539 C158.69356,14.7243778 161.777426,13.5516398 165.686553,13.5516398 C169.943158,13.5516398 173.200764,14.8546821 175.415936,17.5042014 C177.717977,20.1537207 178.456368,23.8891086 177.717977,28.7537998 Z M160.040037,23.5416306 L171.419939,23.5416306 C171.376504,22.2820231 170.768418,21.3264587 169.682549,20.6749376 C168.596681,19.9799817 167.250204,19.6325038 165.686553,19.6325038 C164.296641,19.6325038 163.080469,19.9799817 162.081469,20.6749376 C161.08247,21.3698935 160.387515,22.3254578 160.040037,23.5416306 Z"
				id="Shape" fill-rule="nonzero"></path>
			<path
				d="M180.628105,14.2900304 L187.143316,14.2900304 L187.664533,16.9395497 C189.184749,14.7678126 191.313051,13.681944 194.092875,13.681944 C196.351482,13.681944 198.34948,14.4203346 200,15.8971159 L197.089872,21.5436325 C195.960569,20.7183723 194.657527,20.3274597 193.22418,20.3274597 C191.617095,20.3274597 190.314052,20.8486766 189.228184,21.8476757 C188.142315,22.8466747 187.621098,24.1931518 187.621098,25.9305415 L187.621098,38.6134864 L180.628105,38.6134864 L180.628105,14.2900304 Z"
				id="Path" fill-rule="nonzero"></path>
		</g>
	</g>
</svg>