<svg width="200px" height="101px" viewBox="0 0 200 101" version="1.1" xmlns="http://www.w3.org/2000/svg"
	xmlns:xlink="http://www.w3.org/1999/xlink">
	<g id="Page-1" stroke="none" stroke-width="1" fill="none" fill-rule="evenodd">
		<g id="_uala" fill-rule="nonzero">
			<path
				d="M129.948454,0 C133.298969,0 135.979381,2.83505155 135.979381,6.2371134 L135.979381,93.814433 C135.979381,97.2164948 133.298969,100.051546 129.948454,100.051546 C126.701031,100.051546 124.020619,97.2164948 124.020619,93.814433 L124.020619,6.2371134 C124.020619,2.83505155 126.701031,0 129.948454,0"
				id="Fill-6" fill="#3E6BFD"></path>
			<path
				d="M23.814433,100.051546 C10.7731959,100.051546 0,89.5360825 0,76.7525773 L0,50 C0,46.8556701 2.73195876,44.0721649 6.08247423,44.0721649 C9.53608247,44.0721649 12.1649485,46.8556701 12.1649485,50 L12.1649485,76.7525773 C12.1649485,83.1443299 17.3195876,88.1958763 23.8659794,88.1958763 C30.5154639,88.1958763 35.7731959,83.1443299 35.8762887,76.7525773 L35.8762887,50 C35.8762887,46.8556701 38.4020619,44.0721649 41.8556701,44.0721649 C45.0515464,44.0721649 48.0412371,46.8556701 48.0412371,50 L48.0412371,76.7525773 C47.9896907,89.5360825 36.9587629,100.051546 23.814433,100.051546"
				id="Path" fill="#3E6BFD"></path>
			<path
				d="M187.989691,72.1649485 C187.989691,67.4742268 186.28866,63.4020619 183.556701,60.6185567 C180.824742,57.5773196 176.958763,56.0309278 172.989691,56.0309278 C168.917526,56.0309278 165.051546,57.5773196 162.42268,60.6185567 C159.690722,63.4020619 158.092784,67.4742268 158.092784,72.1649485 C158.092784,76.7525773 159.690722,80.7731959 162.42268,83.7113402 C165.051546,86.4948454 168.917526,88.0927835 172.989691,88.0927835 C176.958763,88.0927835 180.824742,86.5463918 183.556701,83.7113402 C186.28866,80.7731959 187.989691,76.7525773 187.989691,72.1649485 L187.989691,72.1649485 Z M200,72.1649485 L200,94.1237113 C200,97.371134 197.268041,100.051546 193.969072,100.051546 C191.030928,100.051546 188.762887,97.9381443 188.092784,95.257732 C183.762887,98.2989691 178.659794,100.051546 172.989691,100.103093 C165.257732,100.103093 158.556701,96.9587629 153.71134,91.9072165 C148.814433,86.7525773 145.979381,79.7938144 145.979381,72.1649485 C145.979381,64.4329897 148.814433,57.4742268 153.71134,52.4226804 C158.608247,47.2680412 165.309278,44.0206186 172.989691,44.0206186 C178.659794,44.0206186 183.762887,45.9278351 188.092784,48.9690722 C188.762887,46.185567 191.030928,44.0206186 193.969072,44.0206186 C197.268041,44.0206186 200,46.7010309 200,50.0515464 L200,72.1649485 Z"
				id="Fill-8" fill="#3E6BFD"></path>
			<path
				d="M99.9484536,72.1649485 C99.9484536,67.4742268 98.2474227,63.4020619 95.5154639,60.6185567 C92.7835052,57.5773196 88.9175258,56.0309278 84.9484536,56.0309278 C80.8762887,56.0309278 77.0103093,57.5773196 74.3814433,60.6185567 C71.6494845,63.4020619 70.0515464,67.4742268 70.0515464,72.1649485 C70.0515464,76.7525773 71.6494845,80.7731959 74.3814433,83.7113402 C77.0103093,86.4948454 80.8762887,88.0927835 84.9484536,88.0927835 C88.9175258,88.0927835 92.7835052,86.5463918 95.5154639,83.7113402 C98.2474227,80.7731959 99.9484536,76.7525773 99.9484536,72.1649485 L99.9484536,72.1649485 Z M112.010309,72.1649485 L112.010309,94.1237113 C112.010309,97.371134 109.278351,100.051546 105.979381,100.051546 C103.041237,100.051546 100.773196,97.9381443 100.103093,95.257732 C95.7731959,98.2989691 90.6701031,100.051546 85,100.103093 C77.2680412,100.103093 70.5670103,96.9587629 65.7216495,91.9072165 C60.8247423,86.7525773 57.9896907,79.7938144 57.9896907,72.1649485 C57.9896907,64.4329897 60.8247423,57.4742268 65.7216495,52.4226804 C70.6185567,47.2680412 77.3195876,44.0206186 85,44.0206186 C90.6701031,44.0206186 95.7731959,45.9278351 100.103093,48.9690722 C100.773196,46.185567 103.041237,44.0206186 105.979381,44.0206186 C109.278351,44.0206186 112.010309,46.7010309 112.010309,50.0515464 L112.010309,72.1649485 Z"
				id="Fill-8-Copy" fill="#3E6BFD"></path>
			<path
				d="M192.680412,12.2164948 L192.680412,12.2164948 C189.381443,8.81443299 183.247423,6.90721649 178.350515,10.1030928 C174.587629,12.7835052 171.907216,16.2886598 170.670103,17.9896907 C170.515464,18.1958763 170.412371,18.3505155 170.257732,18.5051546 L170.206186,18.556701 C169.896907,18.9690722 169.587629,19.4329897 169.226804,19.8453608 C166.28866,23.8659794 162.938144,28.4536082 158.865979,28.8659794 C158.556701,28.9175258 158.247423,28.9175258 157.989691,28.9175258 C157.371134,28.8659794 156.752577,29.2268041 156.443299,29.7938144 C156.185567,30.3608247 156.28866,30.9793814 156.701031,31.443299 C158.762887,33.6082474 162.061856,35.1546392 165.412371,35.1546392 C167.319588,35.1546392 169.226804,34.6391753 171.030928,33.5051546 C174.793814,30.8247423 177.474227,27.3195876 178.71134,25.6185567 C178.865979,25.4123711 178.969072,25.257732 179.123711,25.1030928 L179.175258,25.0515464 C179.484536,24.6391753 179.793814,24.1752577 180.154639,23.7628866 C183.092784,19.742268 186.443299,15.1546392 190.515464,14.742268 C190.824742,14.6907216 191.134021,14.6907216 191.391753,14.6907216 C192.061856,14.742268 192.628866,14.3814433 192.938144,13.814433 C193.195876,13.2989691 193.092784,12.6804124 192.680412,12.2164948"
				id="Fill-11" fill="#FF6766"></path>
		</g>
	</g>
</svg>